<?xml version="1.0" standalone="no"?>
<!DOCTYPE svg PUBLIC "-//W3C//DTD SVG 20010904//EN"
 "http://www.w3.org/TR/2001/REC-SVG-20010904/DTD/svg10.dtd">
<svg version="1.0" xmlns="http://www.w3.org/2000/svg"
 width="896.000000pt" height="896.000000pt" viewBox="0 0 896.000000 896.000000"
 preserveAspectRatio="xMidYMid meet">
<metadata>
Created by potrace 1.11, written by Peter Selinger 2001-2013
</metadata>
<g transform="translate(0.000000,896.000000) scale(0.100000,-0.100000)"
fill="#000000" stroke="none">
<path d="M540 7600 c0 -3 -31 -5 -68 -5 -46 0 -69 -4 -69 -11 0 -7 6 -10 13
-7 6 2 15 -2 20 -9 4 -7 4 -10 0 -6 -5 4 -19 3 -32 -2 -13 -5 -26 -6 -28 -1
-8 12 -54 1 -68 -17 -9 -10 -9 -13 -1 -9 6 4 14 3 17 -2 8 -12 -19 -22 -30
-11 -15 13 -57 -8 -50 -26 3 -8 2 -13 -2 -11 -4 3 -18 0 -32 -5 -20 -7 -22
-11 -10 -18 8 -5 13 -10 10 -11 -3 0 -13 -2 -23 -4 -14 -3 -17 1 -12 13 4 12
3 14 -4 7 -6 -6 -12 -23 -13 -38 -1 -15 -6 -27 -11 -27 -5 0 -7 7 -3 15 10 26
-3 16 -18 -14 -9 -16 -12 -32 -8 -36 4 -4 -4 -2 -17 5 -13 6 -21 7 -17 2 3 -6
2 -14 -4 -17 -8 -5 -7 -12 2 -23 11 -13 10 -15 -10 -10 -13 4 -23 1 -24 -5 -1
-13 -4 -28 -8 -39 -1 -5 -3 -12 -4 -18 -1 -14 -13 -17 -23 -6 -5 6 -2 6 7 1 8
-5 12 -5 8 0 -4 4 -2 15 5 24 10 14 10 14 -4 4 -9 -7 -18 -10 -22 -7 -3 3 -5
-130 -5 -295 -1 -276 4 -332 24 -300 4 8 3 9 -4 5 -16 -10 -15 -1 1 13 11 9
13 4 11 -26 -1 -20 1 -46 6 -57 4 -12 4 -31 -1 -43 -5 -13 -5 -23 0 -23 4 0 7
-22 7 -49 -1 -35 2 -47 11 -44 7 3 10 9 7 14 -3 5 -1 17 5 26 7 14 9 11 8 -12
-1 -17 -9 -36 -17 -43 -13 -12 -13 -13 1 -9 18 6 19 1 21 -115 1 -27 6 -48 10
-48 5 0 6 6 2 13 -6 9 -5 9 8 0 19 -16 17 -61 -2 -75 -13 -8 -12 -9 2 -5 13 5
17 -3 20 -34 2 -21 -1 -39 -5 -39 -5 0 -5 -6 1 -12 5 -7 9 -29 7 -49 -2 -20 1
-42 7 -50 7 -10 8 -8 3 9 -4 13 -2 22 5 22 6 0 8 6 4 13 -4 6 -3 9 1 4 5 -4
10 -35 12 -70 2 -53 8 -131 12 -160 1 -5 5 -5 11 -2 6 3 7 -1 4 -9 -3 -9 -11
-13 -18 -9 -6 4 -5 -1 3 -10 14 -18 26 -23 16 -8 -3 5 -1 12 4 15 6 4 8 -11 7
-36 -2 -24 1 -53 5 -65 5 -13 4 -25 -1 -28 -6 -4 -7 -13 -2 -23 5 -9 8 -31 8
-48 -1 -18 3 -31 11 -31 8 0 9 6 3 17 -6 11 -5 17 3 17 7 0 13 -18 13 -46 5
-149 11 -202 24 -213 12 -11 12 -10 2 3 -10 13 -10 18 0 22 10 3 13 -8 12 -44
0 -27 3 -49 8 -49 5 0 4 -9 -2 -20 -6 -11 -7 -20 -3 -20 5 0 8 -12 7 -27 0
-16 4 -31 10 -35 7 -5 8 -8 0 -8 -14 0 -9 -84 5 -86 6 -2 7 0 2 2 -11 6 -3 34
9 34 4 0 7 -17 5 -37 -1 -21 2 -48 6 -61 7 -17 6 -21 -3 -16 -7 5 -8 3 -3 -5
4 -7 8 -41 9 -77 1 -60 8 -76 24 -58 4 4 1 4 -7 -1 -9 -5 -12 -4 -7 3 12 20
24 13 22 -12 0 -13 -4 -22 -8 -19 -5 2 -8 0 -8 -6 0 -5 4 -11 10 -13 8 -3 11
-23 10 -78 0 -8 1 -35 3 -60 2 -25 -1 -51 -7 -59 -9 -12 -8 -13 3 -6 11 6 13
4 8 -8 -3 -8 3 -31 13 -51 10 -20 14 -36 9 -36 -5 0 -9 -5 -9 -11 0 -5 4 -8 9
-5 4 3 9 -11 10 -32 0 -20 2 -67 3 -104 2 -43 6 -64 13 -60 5 3 4 -1 -3 -10
-10 -12 -11 -26 -4 -52 7 -24 7 -36 -1 -39 -6 -2 -4 -6 5 -9 12 -5 15 0 13 20
-2 15 -6 35 -10 45 -4 10 -3 17 5 17 6 0 8 -4 5 -10 -3 -5 -2 -10 3 -10 5 0 8
-12 7 -27 -1 -16 0 -32 3 -37 8 -14 8 -76 1 -76 -4 0 -6 -11 -5 -25 0 -14 4
-25 7 -25 4 0 4 -15 0 -33 -5 -18 -5 -41 -1 -52 4 -11 5 -24 3 -28 -3 -4 1
-15 9 -24 7 -9 8 -14 3 -11 -18 11 -13 -148 5 -169 9 -10 16 -31 17 -48 2 -25
1 -27 -8 -12 -5 9 -7 22 -4 27 3 6 1 10 -4 10 -18 0 -12 -25 11 -56 19 -23 19
-27 5 -21 -14 5 -16 3 -8 -11 5 -9 9 -33 9 -52 3 -178 8 -236 22 -248 13 -10
13 -11 -2 -6 -18 6 -19 -10 -4 -35 5 -8 5 -12 0 -8 -5 3 -9 -18 -10 -46 0 -29
1 -46 4 -39 2 6 9 9 15 5 7 -4 6 1 -2 10 -11 15 -11 17 1 17 12 0 15 -15 14
-70 -1 -38 2 -70 6 -70 4 0 4 -10 0 -22 -6 -21 -7 -48 -2 -73 6 -29 4 -85 -4
-85 -5 0 -1 -10 10 -22 10 -12 13 -18 6 -14 -10 6 -13 3 -10 -10 2 -11 10 -18
17 -16 7 1 10 -2 6 -8 -3 -6 -11 -8 -16 -5 -5 4 -9 -1 -9 -10 0 -10 5 -13 12
-9 7 5 8 3 2 -7 -17 -27 -15 -49 4 -43 16 5 16 5 0 -9 -14 -11 -15 -16 -5 -27
7 -7 7 -10 1 -7 -6 3 -11 0 -11 -8 0 -8 4 -12 9 -9 4 3 8 -1 9 -8 0 -7 4 -4 8
7 6 14 8 3 7 -32 0 -28 -4 -49 -8 -46 -5 2 -8 -1 -8 -6 0 -6 4 -11 8 -11 13 0
13 -50 -1 -51 -6 0 -3 -4 8 -9 11 -5 15 -9 8 -9 -8 -1 -9 -10 -4 -28 4 -16 4
-40 0 -56 -4 -15 -4 -27 -1 -27 4 0 7 -33 6 -73 0 -39 3 -80 8 -89 5 -11 5
-18 0 -18 -5 0 -9 -13 -8 -29 1 -22 4 -27 14 -19 8 8 9 14 2 23 -7 9 -7 14 2
18 10 3 13 -10 13 -52 0 -31 5 -59 10 -63 7 -5 6 -8 -1 -8 -6 0 -9 -14 -7 -32
2 -18 5 -98 7 -178 4 -175 3 -173 17 -165 6 4 8 14 5 22 -3 8 -1 11 5 8 5 -4
7 -16 3 -27 -4 -14 -2 -18 5 -14 8 5 8 0 1 -18 -5 -14 -6 -26 -1 -26 5 0 8
-13 7 -30 -1 -16 0 -27 3 -25 2 3 13 -3 24 -12 20 -18 20 -18 2 12 l-17 30 20
-25 c13 -16 17 -29 11 -35 -14 -14 -11 -25 7 -18 10 4 17 -2 21 -16 3 -14 11
-20 20 -17 8 3 12 2 9 -3 -6 -9 22 -26 37 -22 5 1 5 -3 2 -9 -4 -6 -14 -9 -22
-6 -8 3 -11 1 -8 -5 4 -5 14 -9 23 -8 10 1 20 0 25 -1 13 -4 27 -7 39 -9 6 0
8 -4 5 -8 -4 -3 -2 -12 4 -20 9 -10 15 -10 25 -2 11 9 14 8 14 -1 0 -7 7 -10
15 -7 8 4 17 2 20 -3 4 -6 -2 -10 -12 -11 -13 0 -12 -3 7 -10 14 -6 33 -8 42
-5 10 2 18 1 18 -3 0 -5 12 -7 28 -6 15 1 33 -3 41 -9 11 -8 13 -8 8 1 -8 13
18 12 30 -2 5 -4 1 -4 -7 0 -13 8 -13 7 -1 -8 15 -18 26 -23 16 -7 -3 6 -1 10
5 10 6 0 9 4 6 8 -2 4 8 8 24 7 15 0 26 -3 24 -7 -6 -9 38 -4 56 7 12 6 13 5
3 -5 -15 -16 -52 -21 -75 -9 -11 6 -18 4 -22 -6 -6 -16 7 -29 18 -18 12 13
116 12 109 -1 -4 -8 -2 -7 7 1 7 6 19 9 26 6 8 -3 14 -1 14 4 0 6 -16 9 -34 8
-19 -1 -33 2 -30 6 2 4 12 8 22 7 13 0 140 8 219 14 9 1 10 5 2 15 -6 7 -10
13 -8 14 2 0 28 2 58 4 30 2 58 8 63 13 6 6 -1 8 -17 7 -21 -3 -24 -1 -14 11
6 7 15 11 20 8 5 -3 17 0 28 6 13 7 22 7 26 0 4 -6 11 -7 17 -4 6 4 1 12 -13
21 -21 11 -21 13 -4 11 12 -2 19 2 17 10 -2 10 2 10 18 2 13 -7 20 -7 20 0 0
5 0 13 1 18 0 4 11 13 25 20 14 8 23 19 21 26 -4 9 2 13 16 12 17 -1 21 4 18
19 -3 19 -2 19 16 2 16 -14 20 -14 20 -2 0 8 -4 12 -9 9 -4 -3 -8 0 -8 5 0 6
7 11 15 11 9 0 12 6 9 15 -4 8 -1 15 6 15 6 0 8 5 4 13 -5 7 -1 6 10 -3 16
-13 18 -12 15 5 -4 32 11 57 26 45 10 -8 15 -8 21 1 4 7 3 9 -3 6 -6 -4 -14 0
-17 9 -3 8 -2 12 4 9 11 -7 13 3 12 49 -1 20 5 30 19 33 22 6 25 23 7 42 -11
10 -10 12 1 9 9 -2 14 7 15 25 1 15 -2 27 -7 27 -4 0 -3 9 3 19 7 14 7 22 0
26 -8 5 -7 12 2 23 11 14 10 15 -6 9 -16 -6 -17 -5 -6 8 7 8 9 15 4 15 -5 0
-3 4 4 9 11 7 10 9 -3 14 -9 4 -14 3 -11 -1 3 -5 -1 -9 -9 -9 -11 0 -12 4 -4
14 6 7 16 10 21 7 6 -4 8 4 6 17 -2 13 4 30 12 37 8 8 9 11 2 7 -8 -4 -11 1
-8 17 3 13 5 25 6 28 2 3 2 8 2 11 -1 4 6 6 16 5 13 -1 16 6 14 26 -2 14 2 29
9 34 7 4 10 3 6 -3 -3 -5 0 -10 8 -10 8 0 12 4 9 8 -3 5 0 18 7 30 7 15 8 19
0 15 -7 -5 -8 0 -2 16 5 13 15 23 23 22 8 -1 15 4 16 10 2 22 8 41 16 55 6 9
5 12 -1 8 -5 -3 -10 1 -10 9 0 8 5 13 11 11 6 -3 17 2 24 9 10 11 10 14 0 14
-9 0 -9 3 0 12 7 7 12 22 12 35 0 17 4 21 17 16 13 -5 15 -2 11 15 -4 12 -2
22 3 22 5 0 7 11 5 24 -4 20 -1 23 16 18 18 -4 20 -2 15 17 -3 14 1 24 13 31
9 5 20 7 23 4 3 -3 4 2 3 13 -4 22 13 45 27 36 6 -3 7 -1 3 6 -4 6 -12 9 -17
6 -5 -4 -9 -1 -9 4 0 10 14 15 33 12 5 -1 6 7 2 18 -3 11 -1 22 4 25 6 4 8 13
5 21 -4 10 0 13 13 11 18 -4 22 7 26 72 0 6 5 12 10 12 5 0 6 -8 3 -17 -5 -15
-3 -15 9 2 8 10 14 24 12 30 -2 5 3 16 12 23 9 8 11 11 6 8 -6 -2 -11 3 -11
13 0 10 6 18 13 18 7 0 10 -4 7 -8 -2 -4 1 -11 7 -15 7 -4 9 -3 5 4 -3 6 -2
13 4 17 7 4 7 12 0 25 -14 26 14 49 30 23 10 -16 11 -15 6 6 -5 25 11 78 21
67 3 -3 12 -1 20 5 10 9 10 15 2 25 -7 9 -8 14 -1 14 5 0 9 6 8 13 0 6 4 12 9
12 6 0 9 -6 9 -12 -1 -7 2 -10 7 -7 5 2 7 18 5 34 -2 17 1 30 6 30 5 0 7 4 4
9 -3 5 2 8 12 7 11 -1 16 5 14 17 -2 11 4 17 15 18 11 0 13 3 6 6 -20 7 -15
33 5 33 18 0 20 5 24 54 1 14 4 24 8 24 30 -3 36 4 33 35 -3 24 -2 29 6 17 6
-8 11 -10 11 -5 0 6 5 3 10 -5 8 -13 10 -12 10 3 0 9 -5 17 -11 17 -6 0 -3 7
5 16 9 8 14 19 11 24 -3 5 3 11 14 15 11 3 22 13 25 21 4 9 2 12 -5 8 -6 -3
-3 5 6 20 10 14 22 26 27 26 6 0 6 -6 -1 -14 -9 -11 -9 -16 0 -22 7 -4 9 -3 5
4 -3 6 -3 13 2 16 5 3 7 19 4 35 -4 27 -2 30 18 26 16 -3 20 0 16 10 -3 8 -1
17 5 20 5 4 6 11 3 17 -5 8 -1 9 12 4 15 -6 17 -5 7 5 -17 17 -17 34 0 21 10
-8 13 -5 15 15 2 29 20 46 39 38 7 -2 10 2 6 10 -3 8 -10 12 -17 8 -6 -4 -4 1
4 12 8 10 14 28 12 39 -2 19 -1 18 12 -4 l14 -24 10 37 c6 21 9 46 7 56 -2 13
2 18 13 16 24 -4 37 6 21 16 -11 7 -11 9 -1 9 7 0 11 4 7 9 -3 5 0 13 6 17 6
3 15 0 20 -7 6 -10 8 -9 9 6 1 72 5 80 40 77 3 0 4 14 2 32 -3 27 0 34 17 39
12 3 21 9 20 14 -4 25 2 44 14 37 7 -5 6 0 -3 11 -13 17 -13 18 1 13 18 -7 38
25 34 53 -2 9 3 16 10 16 8 0 11 -7 8 -16 -4 -12 -2 -11 9 3 8 10 13 35 12 57
-1 30 3 43 20 57 13 9 21 22 19 28 -2 6 5 14 15 16 13 4 19 15 20 38 0 18 6
38 13 44 9 8 10 8 5 -1 -5 -9 -2 -11 9 -7 13 5 13 9 3 22 -10 12 -10 14 0 8 8
-5 12 2 12 24 0 23 4 30 16 28 10 -2 19 3 22 11 3 9 0 11 -9 6 -8 -5 -6 1 4
12 9 11 15 27 12 36 -4 8 -1 18 6 23 8 4 10 3 5 -4 -4 -7 -2 -12 4 -12 11 0
25 51 24 83 -1 12 2 15 11 7 17 -14 27 0 12 18 -9 13 -9 14 1 8 12 -7 16 7 13
49 -1 11 2 16 6 10 12 -15 33 -17 34 -2 1 6 1 27 1 45 1 24 5 32 18 32 12 0
17 6 16 18 -2 9 4 23 13 30 9 8 10 11 4 7 -9 -4 -13 2 -13 17 0 16 3 19 9 10
4 -8 12 -12 17 -10 10 3 13 -78 15 -387 1 -136 6 -215 13 -224 8 -11 8 -13 0
-8 -8 5 -12 -11 -12 -53 0 -50 3 -59 14 -49 19 16 18 4 -2 -16 -15 -15 -15
-17 2 -31 15 -12 15 -15 3 -11 -15 5 -16 -10 -15 -137 2 -135 8 -172 25 -161
5 2 7 -6 7 -18 -1 -12 3 -28 8 -36 9 -12 7 -13 -7 -8 -10 4 -21 7 -23 7 -3 0
-2 6 2 13 4 6 3 8 -1 4 -15 -13 -14 -36 1 -30 17 6 16 10 18 -102 1 -49 5 -95
9 -102 4 -6 3 -14 -1 -17 -5 -3 -8 -15 -7 -28 1 -13 -3 -29 -9 -37 -8 -11 -8
-13 2 -7 10 6 12 -1 9 -28 -2 -20 0 -36 5 -36 5 0 6 -6 1 -12 -11 -18 -10 -42
2 -50 7 -5 7 -8 0 -8 -6 0 -9 -29 -7 -72 3 -64 3 -85 2 -140 -1 -49 5 -94 14
-100 7 -5 3 -8 -8 -8 -18 0 -18 -1 1 -17 10 -10 13 -14 6 -9 -9 6 -13 3 -13
-7 0 -8 6 -18 13 -20 10 -4 10 -6 0 -6 -7 -1 -13 -5 -13 -10 0 -6 10 -8 21 -6
12 3 18 1 15 -3 -4 -4 -11 -7 -14 -7 -19 -1 -31 -18 -24 -33 5 -9 8 -47 8 -83
-1 -45 3 -66 11 -66 7 0 10 4 7 9 -3 4 -1 8 3 8 5 0 9 -29 8 -65 0 -36 -4 -65
-8 -65 -5 0 -7 7 -3 15 8 22 -2 18 -14 -5 -6 -11 -7 -20 -3 -19 21 4 33 -2 33
-17 0 -8 -4 -13 -9 -9 -5 3 -13 1 -16 -5 -4 -6 -1 -9 6 -8 7 2 15 -6 17 -17 4
-16 2 -17 -10 -7 -12 9 -15 9 -15 -3 0 -7 5 -13 11 -12 12 2 15 -24 17 -195 1
-64 6 -115 11 -112 4 3 8 0 8 -5 0 -6 -5 -11 -11 -11 -5 0 -7 -4 -4 -10 3 -5
10 -10 14 -10 11 0 10 33 -1 46 -5 7 -3 14 5 17 10 4 13 -13 13 -79 -1 -46 1
-84 4 -84 3 0 5 -19 4 -42 0 -24 4 -49 10 -57 6 -8 7 -12 1 -9 -6 3 -10 -7
-11 -23 -1 -30 9 -38 22 -17 4 7 3 8 -4 4 -8 -5 -10 -2 -6 9 8 19 13 15 19
-15 3 -13 -1 -30 -8 -39 -7 -9 -8 -12 -1 -8 8 4 12 -6 13 -31 2 -31 7 -89 13
-140 1 -7 7 -11 15 -8 12 5 18 -7 13 -29 -6 -26 -7 -94 -1 -91 3 2 6 -27 6
-64 -1 -52 2 -67 12 -63 9 4 10 9 3 18 -7 8 -6 12 3 12 14 0 16 -6 19 -56 1
-22 6 -28 20 -26 20 4 33 -10 18 -20 -16 -10 -2 -24 20 -20 12 2 18 0 15 -6
-4 -5 -2 -9 4 -9 6 0 7 -7 4 -17 -4 -11 -3 -14 5 -9 12 7 44 -6 43 -17 -3 -19
1 -22 29 -22 16 0 29 -4 27 -10 -1 -5 -8 -9 -14 -9 -7 1 -10 -2 -8 -7 3 -4
155 -7 338 -6 304 2 332 3 329 19 -2 11 3 15 15 13 10 -1 23 0 28 4 10 6 16 7
36 10 5 0 7 6 3 12 -3 6 0 15 7 20 19 12 32 11 24 -1 -3 -6 1 -7 10 -4 11 5
13 10 5 19 -8 9 -6 14 6 19 9 3 20 4 25 0 5 -3 9 10 9 28 0 21 3 28 8 20 5 -7
16 -10 26 -6 14 5 15 9 4 15 -10 7 -11 9 0 9 7 0 10 5 7 11 -4 6 0 9 11 7 11
-2 20 3 20 12 6 60 5 57 13 35 8 -19 8 -19 20 3 7 13 14 33 16 44 3 11 7 23
11 27 4 3 4 -3 1 -14 -7 -20 -7 -20 8 -1 8 11 15 28 15 37 0 10 5 21 10 24 6
3 10 1 10 -5 0 -6 5 -8 11 -4 6 3 9 15 6 25 -3 10 -1 22 4 25 5 3 7 9 4 14 -3
5 -1 11 4 14 11 7 9 -13 -4 -34 -7 -12 -6 -13 7 -3 8 7 17 10 21 7 3 -3 3 3 0
15 -3 12 -1 21 5 21 5 0 9 10 8 23 -1 16 4 21 18 19 13 -3 17 1 13 11 -3 8 -3
18 1 22 4 4 7 15 7 26 0 10 3 19 8 19 4 0 10 0 13 0 4 0 1 -6 -5 -14 -9 -10
-8 -15 2 -19 12 -4 15 6 18 56 0 9 4 18 10 18 5 1 13 2 18 3 5 0 13 5 18 10 5
5 3 6 -4 2 -8 -4 -13 -2 -13 5 0 8 -5 7 -17 -2 -16 -13 -17 -12 -4 3 7 10 17
15 22 12 8 -5 14 17 10 39 0 4 4 7 10 7 5 0 7 5 3 12 -4 7 -3 8 5 4 6 -4 8
-13 5 -19 -5 -9 -4 -9 5 -1 7 7 14 30 14 52 1 27 6 38 14 35 7 -3 10 -10 6
-16 -3 -6 -1 -7 6 -3 6 4 11 13 10 19 -4 31 2 48 14 41 9 -5 9 -4 0 6 -6 7 -9
19 -6 27 5 12 9 10 20 -8 8 -13 12 -16 9 -6 -3 9 -2 17 3 17 4 0 7 16 6 35 -1
30 1 33 15 20 14 -12 16 -12 17 3 5 49 9 62 18 61 11 -1 27 36 30 69 2 23 15
44 15 24 0 -7 4 -12 8 -12 13 0 10 30 -2 30 -6 0 -3 5 6 11 9 5 15 15 12 23
-3 7 3 19 12 27 10 8 15 9 11 2 -4 -6 -2 -15 4 -18 7 -5 10 1 9 16 -3 38 -1
42 17 28 13 -11 13 -8 -3 16 -10 16 -14 26 -9 23 18 -11 34 6 37 41 1 18 6 35
10 37 4 2 5 -8 3 -23 -2 -16 -2 -22 1 -15 3 6 9 10 14 7 4 -3 6 4 3 15 -3 11
-1 20 4 20 5 0 8 13 5 29 -4 30 11 50 24 30 4 -8 3 -9 -4 -5 -7 4 -12 1 -12
-8 0 -10 6 -13 16 -9 9 3 14 13 11 24 -3 11 -1 21 4 24 4 3 6 12 3 20 -4 10 0
13 14 10 16 -3 21 3 24 26 3 15 0 34 -6 40 -8 9 -8 10 2 5 6 -4 12 -2 12 3 0
6 4 11 10 11 5 0 7 -6 4 -14 -3 -8 -1 -17 4 -20 5 -3 10 0 9 7 -1 46 4 67 19
67 11 0 15 6 11 20 -3 11 -1 18 4 14 5 -3 10 0 10 5 1 6 3 16 4 21 1 6 3 15 4
21 1 8 6 7 17 -1 8 -8 14 -9 13 -4 -5 26 2 55 12 48 8 -4 8 0 0 15 -7 12 -8
21 -4 20 29 -5 40 3 38 25 -2 16 2 23 12 22 14 -1 20 12 25 56 1 10 9 15 20
13 16 -3 22 8 20 35 0 3 23 6 51 7 29 1 95 3 149 5 53 2 94 6 91 11 -2 4 1 7
7 7 6 0 9 4 6 8 -7 12 41 9 51 -2 5 -5 2 -6 -6 -1 -10 5 -12 4 -7 -4 4 -6 12
-9 17 -5 5 3 7 9 4 14 -3 5 -1 11 5 15 5 3 10 2 10 -2 0 -10 137 -9 147 1 3 3
12 1 20 -5 7 -6 13 -7 13 -2 0 12 30 11 49 -2 11 -6 13 -4 7 10 -5 13 -3 15 6
8 15 -11 28 -11 46 0 8 6 12 4 10 -5 -2 -7 3 -11 12 -9 8 2 38 5 66 5 32 1 51
5 51 13 0 7 -4 10 -9 7 -4 -3 -8 -1 -8 5 0 11 61 8 81 -4 7 -5 10 -4 6 1 -3 6
51 11 136 12 232 4 231 4 245 21 12 15 13 14 8 -1 -4 -14 3 -16 50 -13 31 1
60 7 66 13 6 6 0 9 -20 9 -17 -1 -29 -4 -27 -8 2 -3 -2 -6 -9 -6 -7 0 -13 5
-13 12 0 6 22 11 54 12 54 1 54 1 36 -19 -18 -20 -18 -21 5 -7 12 8 22 17 22
20 0 4 29 6 65 5 36 0 65 2 65 5 0 3 14 4 30 1 17 -2 38 2 47 9 14 12 15 12 9
0 -7 -10 -3 -12 14 -6 16 5 20 4 15 -5 -6 -9 -3 -9 13 -1 14 7 19 17 16 29 -5
14 -4 15 5 2 7 -10 14 -11 19 -5 6 10 32 11 97 6 17 -1 18 -3 5 -11 -8 -5 -10
-10 -4 -10 15 0 26 -40 11 -40 -8 0 -8 -3 -2 -8 13 -9 16 -42 3 -42 -5 0 -7
-4 -3 -9 3 -6 15 -8 27 -6 11 3 17 1 14 -3 -4 -4 -13 -7 -19 -7 -6 0 -12 -16
-12 -36 -1 -27 2 -36 12 -32 7 3 13 9 13 15 0 5 -5 6 -11 2 -8 -4 -8 0 0 15 7
11 13 21 14 21 11 0 -1 -88 -13 -98 -13 -12 -13 -13 0 -9 13 4 16 -7 18 -56 1
-33 8 -67 15 -76 10 -12 9 -13 -1 -7 -10 6 -12 -5 -10 -49 3 -56 24 -100 24
-50 0 13 -3 22 -6 20 -3 -2 -7 6 -7 17 -2 16 1 18 9 10 7 -7 12 -40 13 -74 0
-35 4 -68 8 -75 4 -6 3 -14 -3 -18 -6 -4 -7 -12 -3 -18 11 -17 11 -79 1 -102
-8 -18 -8 -19 5 -3 8 10 17 15 21 11 4 -4 4 0 0 10 -3 9 -2 17 3 17 5 0 9 -25
8 -56 0 -30 2 -57 5 -59 3 -2 5 -26 4 -54 -2 -37 2 -53 14 -62 14 -11 15 -11
5 1 -7 8 -13 17 -13 21 0 4 6 9 13 12 9 3 12 -11 12 -54 0 -33 3 -59 7 -59 4
0 5 -11 2 -24 -2 -15 3 -29 14 -37 14 -11 15 -11 5 1 -16 18 -17 38 -2 23 7
-7 13 -36 15 -65 7 -102 14 -123 32 -102 4 4 0 3 -8 -1 -13 -8 -13 -7 -1 8 7
9 14 17 16 17 1 0 1 -18 0 -40 -1 -22 1 -40 5 -40 4 0 6 -14 5 -32 -2 -27 0
-29 10 -14 11 15 13 15 19 1 3 -9 2 -14 -3 -11 -5 3 -12 -1 -15 -10 -9 -23 -7
-31 4 -14 12 20 19 11 22 -34 1 -20 6 -40 12 -43 5 -3 6 -1 2 5 -4 7 -2 12 3
12 6 0 11 -6 12 -12 0 -7 3 -22 5 -33 2 -11 5 -28 6 -38 1 -10 8 -15 15 -13 7
3 14 1 14 -4 1 -6 3 -14 4 -20 1 -5 3 -15 4 -21 0 -5 5 -8 10 -4 12 7 24 -12
27 -44 2 -13 8 -29 15 -35 9 -8 10 -7 4 4 -6 11 -3 11 10 -2 14 -13 16 -20 7
-31 -9 -11 -7 -13 11 -12 34 3 49 -5 37 -20 -7 -8 -4 -17 12 -31 17 -14 19
-15 10 -2 -12 15 -11 17 6 15 13 -1 18 -8 16 -23 -1 -17 3 -21 22 -18 14 1 24
-3 24 -11 0 -19 27 -39 35 -25 4 6 12 7 18 3 21 -15 178 -8 188 8 6 10 9 10 9
2 0 -7 7 -13 15 -13 8 0 15 5 15 11 0 5 -4 8 -9 5 -5 -3 -11 0 -14 7 -3 8 8
12 37 12 52 -1 77 5 70 16 -3 5 1 6 9 3 8 -3 18 0 23 7 5 8 3 10 -6 4 -9 -6
-11 -4 -6 4 5 7 14 10 21 7 8 -3 19 2 25 10 7 8 18 14 24 14 6 0 5 -4 -3 -9
-9 -6 -10 -11 -2 -15 11 -7 13 -4 15 24 1 9 11 15 24 14 21 -1 26 7 23 33 -1
7 7 10 19 8 18 -4 26 10 21 38 -1 4 8 3 20 -4 15 -8 19 -8 15 0 -4 6 0 11 10
11 16 0 16 1 -2 15 -19 14 -19 14 1 16 11 1 23 1 28 0 4 0 7 10 7 23 0 14 5
28 12 32 6 4 8 3 5 -3 -4 -6 -1 -13 7 -16 10 -4 13 1 11 19 -1 13 2 27 7 30 5
3 7 12 4 20 -3 8 -2 13 2 12 21 -4 39 15 37 43 -1 16 3 33 8 36 6 3 8 2 5 -3
-3 -5 1 -15 9 -23 13 -12 14 -11 8 8 -4 13 -2 28 5 36 8 10 9 15 2 15 -7 0 -8
10 -3 28 7 25 6 257 -2 312 -2 14 1 33 5 42 6 12 5 18 -2 18 -6 0 -9 4 -5 9 3
5 0 13 -6 17 -8 4 -9 3 -5 -4 4 -7 3 -12 -2 -12 -6 0 -13 7 -16 16 -3 8 -2 12
4 9 6 -3 10 -1 10 5 0 6 6 8 13 4 7 -4 9 -3 4 2 -5 5 -14 9 -20 9 -7 0 -12 16
-12 38 0 20 -3 37 -7 37 -3 0 -5 17 -3 38 1 20 -1 46 -5 56 -6 19 -7 19 -12
-2 -4 -12 -2 -20 2 -17 11 7 7 -22 -5 -32 -4 -4 -5 -3 -1 4 3 6 2 14 -3 17 -5
4 -8 14 -6 24 1 9 -1 27 -6 39 -5 13 -4 25 2 29 6 4 7 10 0 17 -9 12 -11 18
-11 38 0 8 -6 7 -17 -2 -15 -13 -15 -12 -3 8 8 12 18 19 24 16 5 -3 6 -1 2 6
-6 8 -12 9 -20 2 -10 -8 -13 -3 -14 22 -1 27 -8 116 -11 152 -1 6 -5 4 -10 -4
-5 -8 -8 -23 -5 -34 2 -11 0 -17 -4 -13 -6 7 -10 52 -14 156 -1 27 -7 49 -16
56 -12 9 -12 13 -2 19 9 5 11 4 6 -3 -4 -7 -2 -12 4 -12 6 0 8 11 6 25 -3 13
0 27 5 31 6 4 6 10 -1 19 -6 7 -9 18 -8 25 2 7 -2 14 -9 17 -7 2 -11 -4 -10
-16 1 -12 4 -21 7 -21 4 0 7 -6 7 -14 0 -8 -5 -12 -11 -10 -6 2 -12 24 -12 49
-1 42 0 44 20 33 18 -10 19 -9 9 4 -7 8 -10 18 -6 22 4 4 0 4 -10 0 -15 -5
-17 3 -17 72 -1 116 -7 338 -10 344 -1 3 -2 8 -1 13 0 4 -3 7 -9 7 -11 0 -9
-28 3 -47 5 -8 3 -13 -5 -13 -10 0 -9 -3 2 -11 13 -9 13 -10 0 -6 -8 2 -14 10
-12 17 2 7 -3 17 -10 21 -7 5 -8 9 -3 9 6 0 10 26 10 60 -1 33 3 60 8 60 5 0
1 7 -7 16 -11 11 -13 21 -7 32 6 11 5 25 -1 36 -8 15 -8 17 2 11 9 -6 11 -4 5
5 -4 7 -8 49 -9 94 -1 44 -5 87 -10 95 -6 9 -5 12 1 8 12 -7 10 200 -2 211 -4
4 -6 -3 -3 -14 3 -12 2 -28 -3 -35 -4 -8 -3 -20 4 -28 9 -11 9 -13 0 -8 -6 4
-13 1 -16 -5 -2 -7 -3 14 -2 48 1 33 5 66 10 74 6 9 4 11 -5 5 -10 -6 -12 -4
-7 9 4 10 7 20 7 22 0 3 5 2 12 -2 7 -4 8 -3 4 4 -4 6 -14 8 -23 5 -10 -4 -14
-2 -10 4 13 21 8 214 -6 232 -8 10 -8 13 -1 8 8 -5 11 25 10 106 -1 90 -4 112
-16 115 -12 2 -15 16 -14 55 1 29 -3 57 -8 63 -11 15 1 46 15 37 6 -4 7 -1 1
8 -9 15 -14 36 -14 59 0 8 0 38 -1 65 -1 28 -2 91 -3 140 0 50 -5 96 -10 104
-6 10 -6 12 2 7 7 -4 12 -1 12 9 0 10 -5 13 -12 9 -7 -5 -8 -3 -2 7 4 8 9 46
9 86 0 57 -2 70 -12 61 -7 -6 -13 -16 -13 -22 0 -6 5 -4 10 4 5 8 10 10 10 4
0 -6 -6 -16 -13 -22 -11 -9 -13 5 -12 78 0 50 -3 90 -8 90 -5 0 -5 6 1 13 5 6
8 27 6 45 -3 24 0 31 9 26 8 -6 8 -3 -1 9 -8 9 -11 20 -9 25 3 4 2 14 -3 21
-4 8 -4 27 0 42 5 16 6 29 2 29 -4 0 -6 56 -6 125 1 87 -2 125 -10 125 -7 0
-8 3 -1 8 6 4 11 21 11 37 0 17 -5 33 -11 37 -7 5 -7 8 0 8 12 0 14 228 2 247
-4 6 -3 14 1 17 11 6 8 74 -4 84 -4 4 -4 -1 -1 -10 4 -10 2 -18 -4 -18 -6 0
-7 -5 -3 -12 4 -6 3 -9 -2 -5 -5 3 -9 55 -8 116 0 75 -3 108 -10 104 -6 -4 -6
-1 1 8 12 15 11 77 -2 100 -5 8 2 5 15 -6 l23 -20 -15 25 c-9 14 -14 42 -13
63 1 20 -1 37 -5 37 -4 0 -6 29 -5 64 0 36 -3 62 -7 60 -5 -3 -6 -15 -2 -27 5
-16 3 -19 -5 -11 -11 10 -18 33 -26 86 -5 39 -15 53 -26 37 -7 -12 -9 -11 -10
1 -1 8 -2 20 -4 25 -1 6 -3 20 -3 33 -1 12 -8 21 -14 20 -8 -2 -13 7 -12 20 0
12 -5 22 -12 22 -8 0 -11 -7 -8 -17 3 -10 -2 -6 -11 10 -9 15 -13 31 -10 36 3
5 -3 8 -12 7 -23 -4 -42 15 -35 34 3 9 -1 7 -10 -4 -15 -19 -16 -19 -22 1 -5
14 -14 19 -31 17 -21 -2 -23 1 -15 15 7 14 5 17 -13 16 -12 -1 -30 2 -39 6
-10 6 -19 5 -23 -1 -4 -6 -12 -7 -18 -3 -11 8 -59 8 -189 3 -38 -2 -48 -12
-26 -26 7 -4 8 -3 4 4 -4 7 -3 12 3 12 12 0 25 -20 14 -21 -55 -7 -68 -3 -71
20 -3 19 -6 21 -13 10 -7 -11 -9 -11 -9 -1 0 7 -5 10 -12 6 -7 -5 -8 -3 -4 5
5 7 0 22 -11 34 -18 21 -18 21 1 7 18 -14 19 -14 5 7 -7 13 -20 22 -29 20 -8
-1 -15 3 -15 10 0 21 -15 29 -67 35 -13 2 -14 5 -6 15 6 7 9 14 7 14 -8 3 -55
9 -76 10 -12 1 -23 10 -26 20 -5 19 -42 20 -42 1 0 -6 -3 -14 -7 -18 -4 -3 -5
3 -3 16 3 18 1 21 -15 17 -11 -3 -20 -1 -20 3 0 5 -12 5 -27 1 -16 -5 -37 -5
-48 -1 -11 4 -23 6 -27 3 -4 -2 -24 -4 -45 -5 -21 0 -44 -6 -52 -12 -11 -8
-13 -8 -8 1 5 8 -2 11 -23 9 -17 -1 -30 -5 -30 -9 0 -4 0 -10 0 -13 0 -4 6 -1
14 5 10 8 16 9 21 1 3 -5 5 -10 3 -11 -8 -2 -76 -11 -95 -12 -22 -1 -42 -27
-21 -27 6 0 9 -2 6 -5 -3 -3 -13 -3 -22 1 -14 5 -14 9 -4 23 11 14 11 14 -3 4
-9 -7 -20 -9 -25 -5 -4 4 -2 -1 5 -10 14 -18 10 -22 -22 -18 -12 1 -17 -4 -15
-16 3 -16 -16 -26 -54 -25 -20 0 -24 -14 -6 -25 7 -5 8 -3 3 6 -5 9 -4 11 4 6
6 -4 9 -12 5 -17 -3 -5 -10 -7 -15 -3 -6 3 -17 -2 -25 -12 -9 -11 -12 -13 -8
-5 4 9 2 12 -7 9 -8 -3 -13 -12 -11 -22 3 -14 -15 -22 -42 -17 -5 1 -6 -7 -3
-19 5 -19 -3 -24 -32 -21 -7 2 -10 -2 -7 -7 3 -6 0 -13 -6 -16 -7 -3 -2 -3 12
0 21 4 22 3 8 -6 -10 -6 -22 -18 -28 -28 -11 -16 -11 -16 -6 1 4 12 2 17 -6
15 -7 -3 -13 -13 -13 -24 0 -10 -6 -20 -12 -20 -7 -1 -18 -2 -24 -3 -13 -1 -2
-21 12 -21 6 0 7 5 3 12 -4 7 -3 8 4 4 18 -11 14 -26 -7 -26 -12 0 -21 -9 -25
-25 -4 -17 -11 -23 -23 -18 -12 5 -15 2 -10 -10 4 -10 2 -17 -4 -17 -6 0 -9
-7 -5 -15 5 -13 2 -14 -15 -4 -14 7 -19 7 -15 0 4 -5 -3 -20 -15 -32 -15 -15
-17 -20 -7 -16 9 3 19 0 21 -8 8 -19 -4 -27 -20 -14 -13 12 -13 11 -17 -31 -1
-8 -8 -14 -16 -12 -12 3 -13 1 -2 -9 15 -16 16 -29 1 -29 -5 0 -8 4 -5 9 3 5
-1 11 -9 14 -9 4 -12 1 -8 -9 3 -7 0 -14 -7 -14 -9 0 -9 -4 -2 -13 6 -7 7 -18
2 -26 -4 -8 -6 -21 -3 -30 4 -12 2 -13 -4 -3 -7 10 -13 8 -27 -7 -12 -14 -14
-21 -6 -26 9 -6 9 -10 -1 -16 -8 -4 -19 -3 -27 3 -11 10 -13 4 -9 -30 2 -23 1
-44 -2 -48 -6 -6 -7 -8 -11 -41 -1 -11 -3 -13 -7 -5 -2 6 -8 12 -13 12 -8 0
-10 -16 -11 -85 0 -16 -2 -17 -9 -5 -5 8 -6 18 -3 24 3 5 1 6 -5 2 -6 -3 -9
-15 -7 -26 3 -14 -1 -17 -12 -13 -12 5 -14 3 -8 -6 4 -8 2 -17 -6 -22 -10 -6
-11 -9 -1 -9 17 0 15 -27 -3 -34 -8 -3 -15 0 -15 6 0 6 -3 9 -6 6 -3 -4 0 -16
6 -28 8 -15 8 -20 1 -16 -11 7 -15 -15 -13 -74 0 -14 -2 -19 -5 -12 -2 6 -10
9 -16 5 -8 -4 -7 -1 1 9 10 13 10 17 -1 21 -8 3 -13 -3 -14 -17 -1 -57 -4 -67
-14 -60 -8 4 -8 0 0 -15 8 -15 9 -21 1 -21 -6 0 -8 -5 -4 -12 4 -7 3 -8 -5 -4
-6 4 -8 12 -5 18 4 7 2 8 -5 4 -6 -4 -11 -13 -10 -19 4 -31 -2 -48 -13 -41 -9
5 -8 2 1 -9 17 -21 7 -35 -12 -18 -12 9 -13 7 -9 -14 3 -16 0 -25 -8 -25 -10
0 -10 -3 0 -15 9 -11 9 -15 1 -15 -6 0 -10 -10 -7 -23 3 -15 -1 -24 -9 -24 -7
0 -11 6 -8 14 3 7 0 13 -5 13 -6 0 -9 -13 -7 -30 2 -16 0 -32 -5 -35 -5 -3 -7
-14 -5 -25 3 -13 0 -18 -7 -14 -7 5 -9 2 -5 -9 4 -11 2 -14 -9 -10 -8 3 -14 2
-13 -3 5 -27 -3 -74 -12 -74 -5 0 -7 6 -3 13 5 9 4 9 -5 1 -6 -6 -13 -20 -16
-32 -2 -12 -7 -27 -10 -32 -3 -6 0 -10 7 -10 11 0 11 -2 0 -9 -7 -4 -12 -14
-10 -22 2 -9 -4 -13 -14 -11 -14 2 -18 -5 -19 -35 -1 -21 -1 -41 -1 -44 1 -3
-6 -6 -13 -6 -11 0 -12 4 -4 13 6 7 9 19 6 26 -3 8 -6 6 -6 -5 -1 -12 -6 -16
-13 -11 -7 4 -10 4 -6 -1 4 -4 3 -16 -3 -26 -7 -13 -6 -19 1 -19 7 0 8 -5 3
-12 -4 -7 -8 -16 -8 -20 0 -3 -4 -10 -9 -15 -5 -4 -6 -3 -2 4 3 6 2 14 -3 17
-12 7 -18 -12 -17 -46 2 -26 -4 -32 -30 -29 -6 1 -11 -5 -11 -14 0 -8 5 -12
11 -9 6 3 4 0 -5 -8 -9 -7 -15 -21 -13 -30 1 -10 -3 -21 -8 -25 -7 -3 -8 -1
-4 5 4 7 3 12 -3 12 -10 0 -18 -20 -25 -70 -2 -15 -9 -24 -18 -22 -8 1 -15 -5
-16 -13 -1 -8 -3 -21 -4 -29 -1 -8 -7 -12 -15 -9 -7 3 -10 10 -6 17 3 6 2 7
-3 3 -5 -5 -9 -18 -10 -30 -3 -62 -4 -66 -22 -62 -15 2 -18 -4 -18 -33 0 -29
-4 -37 -17 -36 -9 1 -18 -4 -18 -12 -3 -27 -4 -32 -11 -39 -4 -4 -4 -13 -1
-21 3 -10 0 -12 -10 -8 -8 3 -18 0 -23 -7 -5 -8 -3 -10 7 -4 11 7 12 6 2 -7
-7 -8 -10 -18 -6 -21 3 -4 -2 -7 -13 -7 -11 0 -15 -3 -9 -8 10 -6 11 -16 6
-39 -1 -5 -8 3 -16 17 l-14 25 3 -32 c2 -18 -1 -33 -6 -33 -4 0 -6 -11 -4 -25
3 -15 1 -23 -5 -20 -5 4 -7 12 -3 18 3 7 -3 1 -15 -13 -11 -14 -16 -26 -11
-28 6 -2 6 -10 0 -21 -5 -10 -6 -21 -3 -25 3 -3 1 -6 -6 -6 -6 0 -11 6 -9 13
2 6 -2 13 -7 15 -6 1 -11 -7 -11 -18 -1 -11 -2 -29 -3 -39 0 -11 -10 -23 -21
-26 -11 -3 -20 -11 -20 -16 0 -6 4 -8 10 -4 5 3 3 -7 -5 -21 -8 -15 -11 -32
-8 -37 3 -5 -5 -4 -17 3 -20 11 -21 10 -16 -8 4 -11 2 -23 -3 -26 -6 -4 -7
-14 -4 -22 4 -10 -2 -17 -16 -21 -13 -3 -20 -11 -17 -19 3 -7 1 -16 -4 -19 -4
-3 -7 -16 -6 -29 2 -17 -1 -23 -11 -19 -9 4 -10 9 -3 18 7 8 6 12 -4 12 -9 0
-13 -10 -12 -29 1 -15 -2 -28 -7 -28 -4 0 -6 -9 -2 -19 3 -11 1 -22 -4 -26 -6
-3 -8 0 -5 8 3 8 1 18 -5 22 -7 4 -11 -4 -11 -20 0 -14 -4 -24 -9 -21 -4 3 -7
-6 -5 -20 2 -18 -2 -24 -14 -22 -11 2 -16 -3 -16 -14 1 -10 -2 -18 -6 -18 -4
0 -6 -11 -4 -26 2 -22 0 -23 -14 -12 -12 10 -14 10 -8 1 4 -7 2 -13 -3 -13 -6
0 -11 -12 -11 -26 0 -17 -4 -23 -12 -18 -8 5 -7 0 2 -11 14 -17 13 -18 -2 -12
-21 7 -34 -15 -32 -55 1 -21 -3 -26 -18 -23 -10 2 -19 -2 -19 -8 -1 -7 -2 -19
-3 -27 0 -8 -9 -14 -18 -12 -17 3 -25 -24 -18 -67 2 -13 0 -13 -16 0 -11 8
-15 9 -10 2 4 -7 3 -13 -2 -13 -6 0 -13 -11 -16 -25 -4 -14 -12 -24 -19 -22
-6 1 -11 -6 -9 -16 2 -9 -1 -17 -6 -17 -6 0 -9 -8 -8 -17 1 -12 -5 -17 -18
-15 -15 3 -18 -1 -14 -22 3 -16 0 -27 -9 -30 -8 -3 -12 -2 -9 2 3 5 -1 9 -9 9
-8 0 -12 -4 -9 -9 3 -4 0 -8 -7 -8 -8 0 -8 -4 1 -15 10 -12 9 -15 -8 -15 -13
0 -22 -9 -26 -25 -4 -15 -11 -23 -17 -19 -7 4 -6 -2 1 -16 7 -12 8 -20 2 -16
-5 3 -19 -3 -31 -13 -16 -14 -18 -21 -9 -24 12 -5 -15 -10 -54 -10 -10 0 -14
-5 -11 -14 3 -8 9 -11 12 -6 3 4 14 9 25 10 27 2 2 -21 -27 -24 -32 -3 -50 -8
-64 -16 -6 -4 -14 -3 -18 3 -4 6 -11 8 -16 4 -6 -4 -6 -11 1 -19 8 -10 8 -15
-1 -21 -7 -4 -9 -3 -6 3 4 6 0 14 -9 17 -8 3 -12 2 -9 -4 6 -9 -23 -15 -54
-10 -12 1 -13 -1 -2 -13 10 -13 9 -17 -6 -24 -10 -5 -30 -9 -45 -8 -16 0 -28
-3 -28 -7 0 -4 5 -8 10 -8 6 0 5 -6 -2 -14 -7 -8 -15 -14 -18 -13 -16 2 -38
-17 -33 -28 3 -10 -3 -13 -24 -10 -15 2 -23 2 -16 -1 8 -4 9 -13 3 -29 -5 -12
-7 -25 -4 -28 3 -2 -2 -7 -11 -11 -12 -4 -14 -2 -6 13 8 13 6 18 -5 18 -8 0
-13 -6 -10 -13 2 -6 -3 -22 -11 -35 -9 -12 -11 -19 -5 -15 21 13 21 -12 -1
-32 l-23 -22 1 33 c1 17 -3 38 -8 45 -5 6 -5 12 -1 12 9 0 9 34 1 98 -2 18 0
35 4 38 5 3 6 10 2 17 -4 6 -7 73 -7 148 -1 76 -4 141 -8 145 -5 4 -3 12 2 19
7 8 5 12 -5 12 -8 0 -12 -4 -9 -9 3 -4 1 -8 -4 -8 -5 0 -9 20 -9 45 0 40 2 44
16 33 14 -11 14 -10 0 7 -19 22 -19 27 -22 517 -2 185 -6 291 -13 298 -7 7
-10 0 -9 -25 1 -19 -1 -35 -5 -35 -5 0 -6 32 -4 71 3 55 2 69 -8 63 -10 -6
-11 -5 -1 8 7 8 12 17 10 19 -1 2 0 3 3 1 3 -2 6 -8 6 -13 1 -5 3 -12 4 -16 6
-19 4 -38 -3 -44 -5 -3 -3 -9 5 -11 9 -4 13 4 14 28 0 19 -2 34 -5 34 -4 0 -7
9 -8 20 -1 11 1 18 5 16 4 -3 8 4 8 15 0 18 -2 18 -12 5 -6 -9 -13 -16 -16
-16 -2 0 -4 41 -3 90 1 50 -2 93 -7 96 -4 3 -5 11 -1 17 4 7 8 33 10 60 1 34
-2 45 -10 40 -7 -4 -6 0 2 10 7 9 10 17 6 17 -4 0 -2 6 4 13 6 8 8 17 4 20 -3
4 0 14 8 23 9 11 14 50 15 125 0 60 4 112 7 115 4 4 3 14 -1 23 -5 9 -7 50 -6
91 2 57 4 496 3 775 0 10 -5 26 -12 34 -9 12 -9 13 0 8 9 -6 12 2 11 28 -1 25
-5 34 -14 31 -8 -3 -11 0 -7 9 3 8 8 13 12 11 3 -2 6 18 6 44 1 39 -2 47 -12
38 -7 -6 -10 -15 -6 -22 4 -6 8 -17 10 -25 1 -10 -1 -11 -10 -2 -15 15 -18
101 -3 101 6 0 5 4 -3 9 -8 5 -11 16 -8 25 4 9 2 16 -2 16 -10 0 -9 19 2 37 4
6 3 14 -2 18 -5 3 -8 15 -6 26 3 16 0 19 -11 15 -10 -4 -14 -1 -11 6 2 7 9 12
14 11 5 -1 10 5 10 13 0 10 -4 11 -11 4 -21 -21 -26 -6 -30 81 -1 25 -5 35
-14 32 -9 -4 -9 -9 -2 -18 7 -8 6 -12 -4 -12 -9 0 -13 8 -10 23 2 13 0 25 -5
29 -6 3 -7 13 -4 21 5 14 3 15 -15 5 -15 -8 -22 -8 -22 -1 0 5 6 10 13 10 7 0
8 3 2 8 -6 4 -16 18 -23 32 -7 14 -10 17 -7 7 3 -11 0 -17 -6 -15 -6 2 -11 8
-11 13 0 22 -20 36 -35 24 -11 -9 -12 -9 -7 4 6 18 -39 53 -55 43 -6 -4 -15 3
-21 14 -6 11 -15 18 -20 15 -5 -3 -12 0 -15 6 -4 5 -13 8 -21 5 -8 -3 -11 0
-7 9 3 8 10 12 17 8 6 -3 7 -2 3 3 -11 11 -42 14 -172 13 -60 0 -123 0 -140 0
-23 0 -26 -2 -15 -9 13 -9 13 -11 0 -20 -15 -10 -22 -11 -62 -14 -15 -1 -22
-7 -20 -17 1 -9 -5 -16 -13 -16 -10 0 -14 6 -10 16 3 11 1 10 -10 -3 -8 -10
-12 -23 -8 -28 3 -6 -5 -5 -17 2 -20 11 -22 10 -16 -5 8 -21 -3 -42 -14 -26
-5 8 -14 6 -31 -9 -19 -16 -20 -19 -5 -13 13 4 17 3 12 -5 -4 -7 -16 -12 -27
-12 -17 0 -23 -10 -20 -32 0 -3 -7 -5 -17 -3 -9 1 -29 -11 -43 -27 -15 -16
-33 -28 -40 -26 -8 2 -14 -5 -14 -17 0 -14 -6 -20 -23 -19 -13 1 -22 -4 -22
-13 0 -10 6 -13 18 -9 16 6 16 5 -1 -8 -9 -7 -28 -12 -42 -10 -14 1 -23 -2
-19 -7 3 -5 9 -7 14 -4 5 3 12 0 16 -7 4 -7 4 -10 -1 -6 -10 9 -37 -11 -30
-22 3 -5 -4 -6 -15 -3 -20 5 -24 -5 -23 -46 1 -9 -2 -10 -10 -2 -18 18 -31 13
-16 -6 10 -11 10 -14 2 -9 -13 7 -17 -4 -14 -31 1 -7 -6 -13 -16 -13 -15 0
-16 2 -3 10 9 6 10 10 3 10 -17 0 -31 -29 -26 -54 4 -17 3 -18 -6 -6 -8 11
-11 12 -11 2 0 -7 -4 -10 -10 -7 -10 6 -13 -3 -13 -36 0 -11 -6 -15 -18 -12
-19 5 -24 -11 -21 -62 2 -18 1 -19 -11 -3 -12 15 -14 15 -26 -4 -9 -14 -9 -18
-1 -13 9 5 9 1 0 -16 -18 -35 -52 -69 -61 -63 -5 3 -9 0 -9 -6 0 -7 7 -9 16
-6 10 4 14 1 11 -6 -2 -7 -11 -12 -19 -11 -9 2 -15 -6 -16 -22 -3 -46 -5 -55
-11 -49 -3 3 -6 10 -6 15 0 5 -4 9 -10 8 -5 0 -9 -7 -7 -15 2 -9 -2 -22 -9
-30 -9 -11 -8 -14 2 -14 12 0 12 -2 0 -9 -8 -5 -20 -7 -28 -4 -9 4 -11 0 -7
-11 3 -9 11 -13 18 -9 6 3 7 2 3 -3 -5 -5 -14 -9 -20 -9 -7 0 -11 -10 -9 -21
2 -13 -3 -21 -13 -21 -9 0 -14 6 -11 14 3 8 1 11 -5 8 -5 -4 -8 -20 -5 -36 4
-28 -3 -35 -29 -29 -5 1 -7 -2 -3 -6 4 -4 3 -13 -3 -20 -6 -8 -9 -20 -6 -29 4
-8 2 -17 -4 -21 -6 -3 -8 -12 -5 -20 3 -7 1 -16 -5 -19 -5 -4 -8 -1 -7 6 2 6
-3 14 -10 16 -8 3 -10 -1 -6 -11 4 -10 1 -16 -7 -16 -10 0 -10 -3 -2 -11 6 -6
9 -18 6 -25 -4 -12 -8 -12 -21 -2 -12 10 -14 10 -8 1 4 -7 3 -13 -2 -13 -5 0
-9 -10 -9 -22 -1 -13 -1 -34 -2 -48 -2 -23 -3 -23 -11 -5 -7 18 -8 19 -15 3
-4 -10 -12 -15 -19 -11 -8 5 -8 3 1 -8 6 -8 9 -26 6 -41 -4 -23 -8 -26 -24
-17 -16 8 -19 6 -19 -13 0 -19 2 -20 10 -8 5 8 10 11 10 6 0 -6 -10 -21 -22
-34 -13 -14 -17 -22 -9 -17 9 5 12 3 9 -6 -3 -8 -12 -13 -21 -13 -8 1 -14 -5
-12 -15 1 -9 0 -20 -4 -26 -6 -10 -8 -16 -10 -36 -1 -8 -5 -8 -14 0 -10 8 -14
7 -14 -4 0 -8 5 -15 11 -15 6 0 4 -5 -4 -10 -8 -5 -15 -19 -15 -32 0 -16 -5
-22 -17 -20 -12 2 -16 -2 -12 -13 3 -8 11 -12 17 -8 6 3 7 1 3 -6 -4 -6 -12
-9 -17 -6 -5 4 -9 -1 -9 -10 0 -9 -4 -14 -9 -10 -5 3 -13 1 -16 -5 -4 -6 -3
-10 2 -9 4 1 15 1 23 0 12 -1 12 -4 -3 -12 -9 -5 -22 -7 -27 -4 -6 3 -10 1
-10 -4 0 -6 6 -11 13 -11 9 0 9 -2 -1 -9 -8 -4 -13 -11 -13 -15 3 -24 -2 -38
-25 -65 -14 -17 -21 -31 -15 -31 6 0 8 -6 5 -14 -3 -8 -13 -13 -22 -11 -13 2
-18 -5 -19 -29 -5 -61 -8 -71 -25 -84 -10 -7 -20 -28 -24 -47 -4 -21 -11 -32
-19 -29 -8 3 -12 -4 -12 -21 0 -14 -9 -32 -19 -40 -11 -8 -14 -15 -9 -15 6 0
3 -4 -5 -10 -8 -5 -15 -24 -16 -42 -3 -48 -3 -48 -16 -46 -7 2 -13 -4 -13 -12
0 -8 -4 -21 -8 -27 -5 -7 -6 -17 -2 -22 3 -5 1 -12 -5 -16 -5 -3 -10 -1 -10 6
0 33 -19 -11 -21 -48 -2 -34 -6 -40 -16 -31 -14 11 -15 10 -17 -21 0 -11 -4
-22 -8 -26 -4 -4 -4 -13 -1 -21 3 -9 -1 -12 -15 -9 -17 3 -20 -1 -16 -20 2
-13 0 -26 -5 -30 -6 -3 -7 -13 -4 -22 5 -12 2 -15 -9 -10 -17 6 -33 -18 -22
-34 3 -5 1 -9 -5 -9 -5 0 -8 -9 -6 -20 2 -12 -3 -21 -16 -25 -10 -4 -19 -11
-19 -16 0 -6 6 -7 12 -4 7 4 6 1 -2 -7 -19 -17 -24 -38 -8 -38 6 0 8 -3 4 -7
-4 -4 -15 -8 -24 -8 -9 0 -17 -4 -17 -10 0 -5 -3 -14 -6 -20 -3 -5 -5 -22 -4
-37 1 -23 -2 -25 -17 -17 -10 5 -18 6 -17 2 1 -4 1 -23 0 -42 -1 -27 -5 -32
-18 -29 -14 4 -19 -2 -20 -24 -5 -71 -7 -75 -24 -71 -10 3 -18 -3 -22 -16 -3
-12 0 -21 5 -21 6 0 6 -6 -2 -15 -6 -8 -9 -19 -6 -24 4 -5 2 -13 -4 -16 -6 -4
-9 -1 -8 6 2 6 -2 13 -8 15 -6 3 -10 -13 -10 -38 -1 -35 -4 -42 -17 -40 -9 2
-18 -2 -18 -8 -2 -10 -5 -25 -9 -37 -1 -5 -2 -17 -1 -28 1 -15 0 -17 -7 -7 -7
11 -11 10 -17 -5 -5 -10 -7 -21 -7 -25 1 -5 -2 -8 -7 -8 -5 0 -8 -12 -5 -27 3
-21 2 -24 -5 -13 -15 22 -25 5 -36 -65 -2 -11 -4 -22 -4 -24 -1 -2 -8 2 -16 9
-14 12 -15 10 -11 -13 4 -24 -14 -43 -37 -38 -5 1 -6 -3 -2 -9 5 -7 11 -8 19
-1 8 7 12 5 12 -8 0 -13 -6 -17 -20 -13 -13 3 -17 1 -12 -6 4 -7 3 -12 -2 -12
-6 0 -8 -17 -7 -37 2 -21 1 -32 -2 -25 -2 6 -10 9 -16 5 -7 -4 -7 -1 1 9 9 11
10 18 2 23 -5 3 -10 5 -11 3 -2 -6 -11 -74 -12 -90 -1 -12 -5 -14 -11 -8 -16
16 -22 12 -24 -21 -3 -41 -9 -49 -30 -42 -14 6 -15 4 -4 -9 10 -13 10 -17 0
-20 -7 -3 -13 -15 -13 -28 0 -13 -6 -25 -14 -28 -9 -3 -11 0 -6 8 5 8 4 11 -3
6 -10 -6 -11 -15 -12 -75 0 -21 -2 -23 -12 -10 -7 8 -12 12 -11 10 2 -2 -2
-10 -8 -18 -6 -7 -8 -13 -4 -13 4 0 2 -7 -5 -15 -7 -8 -9 -23 -6 -32 4 -10 4
-14 0 -10 -4 4 -15 0 -24 -8 -14 -13 -16 -12 -17 6 -1 15 2 19 14 15 14 -6 14
-4 2 16 -8 13 -14 46 -14 75 0 28 -3 49 -8 46 -4 -2 -7 1 -7 8 0 7 -3 10 -6 7
-3 -4 -1 -15 5 -26 7 -13 7 -23 -2 -32 -8 -9 -9 -11 0 -6 7 4 10 -3 8 -21 -2
-16 2 -35 9 -43 9 -13 9 -13 -5 -3 -9 7 -18 11 -20 8 -3 -2 -5 4 -5 15 0 10 4
16 8 14 10 -6 11 10 1 20 -10 9 -12 166 -2 161 4 -3 11 -1 14 5 4 6 1 9 -6 8
-9 -2 -14 13 -16 47 -1 28 -4 67 -5 88 -2 20 0 37 3 37 4 0 5 9 2 20 -3 11
-10 17 -17 13 -6 -4 -6 -1 2 9 10 12 10 17 -1 27 -8 6 -18 7 -22 3 -5 -4 -5
-1 -1 6 6 10 11 10 22 1 14 -11 20 -1 14 26 -1 6 -3 33 -4 61 -1 27 -6 55 -9
61 -4 6 -2 14 3 16 6 3 5 4 -2 3 -14 -4 -14 -9 -2 -40 5 -12 4 -17 -3 -13 -5
3 -10 0 -10 -8 0 -8 3 -12 7 -10 4 2 7 -2 7 -9 0 -7 -5 -13 -11 -13 -7 0 -11
36 -11 106 0 58 -3 124 -6 146 -3 23 -2 53 2 68 4 15 4 27 0 27 -4 0 -7 27 -5
60 1 33 -2 57 -7 54 -5 -3 -7 -10 -4 -15 10 -15 -2 -10 -16 8 -12 14 -12 16 0
8 11 -6 13 -4 6 11 -4 10 -8 64 -9 119 -1 55 -5 106 -9 113 -5 7 -3 12 3 12 7
0 8 6 0 19 -6 12 -6 22 -1 26 6 3 6 17 1 34 -4 16 -5 33 -2 37 4 4 -2 4 -12 0
-17 -6 -17 -5 -5 10 8 10 14 39 14 66 0 41 -2 46 -12 32 -8 -11 -9 -22 -3 -29
5 -6 5 -17 0 -25 -6 -9 -5 -18 3 -23 9 -6 8 -7 -3 -5 -10 3 -14 19 -15 55 0
28 3 49 8 46 4 -2 7 1 7 6 0 6 -4 11 -8 11 -13 0 -11 33 2 49 8 11 8 13 0 8
-8 -4 -12 13 -13 56 0 34 -1 70 -2 80 0 11 -5 15 -12 10 -9 -5 -9 -3 0 8 13
17 15 89 1 89 -5 0 -6 -6 -2 -12 6 -10 4 -10 -6 -1 -21 20 -22 76 -2 92 15 12
15 13 0 8 -13 -5 -16 0 -14 21 1 15 6 33 10 41 6 9 5 12 -2 7 -6 -4 -11 1 -11
11 0 10 -2 27 -4 38 -2 11 -1 30 4 41 5 15 2 27 -9 39 -9 10 -11 15 -4 11 7
-4 12 -1 12 8 0 9 -4 16 -10 16 -6 0 -6 9 0 25 7 19 6 23 -5 18 -8 -3 -12 -10
-8 -17 3 -6 2 -7 -3 -3 -4 4 -10 45 -11 90 -5 170 -7 182 -22 194 -9 7 -11 13
-6 13 6 0 3 5 -5 10 -11 7 -11 10 -2 10 8 0 10 5 5 12 -12 21 -12 68 0 68 8 0
8 3 2 8 -13 9 -18 55 -14 145 1 38 -11 101 -21 111 -10 9 -10 6 -1 -11 9 -18
9 -23 0 -23 -8 0 -8 -4 -1 -12 7 -9 6 -16 -2 -24 -8 -8 -12 8 -13 65 -2 77
-11 226 -14 248 -1 7 -6 10 -11 7 -5 -3 -6 -10 -3 -15 12 -19 13 -48 2 -52 -8
-3 -13 15 -14 57 -2 52 -9 173 -12 199 -1 11 -21 -2 -21 -14 0 -6 4 -8 9 -5 5
4 7 -4 3 -16 -5 -20 -6 -21 -12 -2 -4 10 -7 36 -5 57 1 21 -2 40 -5 42 -4 3
-6 16 -5 30 2 14 -1 25 -6 25 -5 0 -9 5 -9 11 0 5 5 7 12 3 13 -8 3 11 -19 37
-8 9 -13 20 -12 25 1 5 0 12 -1 17 -1 4 -3 13 -4 20 0 6 -6 12 -13 12 -6 0
-15 3 -19 8 -4 4 -2 7 4 7 7 0 12 5 12 10 0 6 -5 9 -12 8 -8 -2 -13 10 -13 34
0 20 -4 40 -8 44 -4 5 -5 1 -1 -9 3 -10 1 -17 -5 -17 -11 0 -13 6 -14 53 -1
24 -5 28 -23 24 -14 -2 -21 1 -21 12 0 39 -3 46 -12 33 -6 -10 -11 -9 -22 4
-9 12 -10 15 -1 10 6 -4 12 -3 12 3 0 10 -38 27 -52 23 -12 -3 -9 13 4 26 9 9
7 11 -10 7 -12 -2 -24 1 -27 6 -4 5 -10 7 -15 4 -5 -3 -7 3 -5 13 2 11 -3 19
-10 19 -7 0 -11 -6 -8 -13 2 -6 -1 -15 -8 -20 -7 -4 -10 -3 -6 4 14 22 -3 37
-44 36 -22 0 -42 3 -45 8 -3 4 0 8 5 8 20 0 11 16 -9 17 -13 1 -18 -2 -13 -10
5 -9 3 -9 -8 -1 -8 5 -21 10 -29 9 -8 -1 -25 2 -37 7 -14 4 -23 4 -23 -3 0 -6
-4 -7 -10 -4 -13 8 -90 12 -90 5z m7077 -25 c0 -8 -4 -12 -9 -9 -5 3 -6 10 -3
15 9 13 12 11 12 -6z m-7347 -75 c0 -5 -2 -10 -4 -10 -3 0 -8 5 -11 10 -3 6
-1 10 4 10 6 0 11 -4 11 -10z m7514 -11 c-3 -5 -10 -7 -15 -3 -5 3 -7 10 -3
15 3 5 10 7 15 3 5 -3 7 -10 3 -15z m29 -34 c-3 -9 -8 -14 -10 -11 -3 3 -2 9
2 15 9 16 15 13 8 -4z m-4262 -242 c13 -16 12 -17 -3 -4 -10 7 -18 15 -18 17
0 8 8 3 21 -13z m-2418 -84 c-8 -8 -13 -7 -18 2 -6 8 -4 10 5 4 10 -6 12 -4 6
11 -6 15 -5 17 5 7 9 -10 10 -16 2 -24z m5500 -276 c-3 -7 -9 -10 -14 -7 -14
8 -11 21 5 21 8 0 12 -6 9 -14z m-6612 -130 c-12 -20 -14 -14 -5 12 4 9 9 14
11 11 3 -2 0 -13 -6 -23z m8524 -220 c-2 -10 -4 -20 -4 -22 -1 -3 -7 1 -13 7
-10 10 -10 15 2 22 19 12 19 13 15 -7z m-7271 -49 c3 -8 2 -12 -4 -9 -6 3 -10
10 -10 16 0 14 7 11 14 -7z m1721 -1 c-2 -10 -4 -19 -4 -21 -1 -2 -6 0 -11 3
-8 5 -7 11 1 21 15 18 18 18 14 -3z m5546 0 c10 -11 10 -14 2 -9 -7 4 -13 2
-13 -3 0 -6 4 -11 8 -11 5 0 8 -13 8 -30 0 -30 -9 -39 -21 -20 -3 6 -1 10 4
10 6 0 11 5 11 11 0 5 -5 7 -12 3 -7 -4 -8 -3 -4 4 4 6 2 20 -3 30 -6 11 -7
22 -4 26 9 8 9 8 24 -11z m-11 -113 c-6 -11 -13 -20 -16 -20 -2 0 0 9 6 20 6
11 13 20 16 20 2 0 0 -9 -6 -20z m8 -30 c-7 -10 -14 -17 -17 -15 -4 4 18 35
25 35 2 0 -1 -9 -8 -20z m7 -70 c3 -5 2 -10 -4 -10 -5 0 -13 5 -16 10 -3 6 -2
10 4 10 5 0 13 -4 16 -10z m-2265 -242 c0 -6 -6 -5 -15 2 -8 7 -15 14 -15 16
0 2 7 1 15 -2 8 -4 15 -11 15 -16z m-6089 -141 c-10 -9 -11 -8 -5 6 3 10 9 15
12 12 3 -3 0 -11 -7 -18z m4352 -52 c-3 -9 -8 -14 -10 -11 -3 3 -2 9 2 15 9
16 15 13 8 -4z m3 -90 c-1 -8 -8 -21 -16 -28 -10 -10 -11 -9 -4 3 5 8 9 18 10
23 3 14 4 17 8 17 2 0 3 -7 2 -15z m-1952 -71 c5 -14 4 -15 -9 -4 -17 14 -19
20 -6 20 5 0 12 -7 15 -16z m-2364 -4 c0 -5 -5 -10 -11 -10 -5 0 -7 5 -4 10 3
6 8 10 11 10 2 0 4 -4 4 -10z m4315 -47 c2 -12 -2 -23 -8 -26 -8 -3 -12 7 -12
29 0 35 13 33 20 -3z m2929 -82 c3 -4 -4 -7 -14 -6 -27 2 -33 10 -10 12 11 1
22 -2 24 -6z m-6085 -24 c0 -9 -2 -8 -6 1 -2 6 -10 9 -15 6 -7 -4 -8 -2 -4 5
9 13 26 5 25 -12z m6087 -50 c1 -26 -2 -47 -6 -47 -4 0 -11 -7 -14 -16 -6 -14
-4 -15 9 -4 14 12 16 10 12 -16 -3 -16 -10 -28 -16 -26 -7 1 -10 -2 -6 -8 3
-6 10 -8 14 -6 4 3 8 -64 8 -150 0 -85 2 -156 4 -159 3 -2 4 -38 2 -80 -1 -68
0 -76 15 -71 15 5 15 5 2 -6 -12 -10 -16 -36 -16 -115 0 -57 3 -103 7 -103 3
0 5 27 4 59 -2 46 1 61 13 66 12 4 12 2 4 -8 -7 -8 -9 -17 -5 -21 9 -9 11 -46
2 -40 -4 2 -7 -5 -6 -16 1 -11 5 -20 9 -20 4 0 3 -12 -2 -26 -12 -30 -12 -37
-2 -31 4 3 7 -84 7 -192 l1 -198 -36 -2 c-19 -2 -68 -3 -108 -3 -60 -1 -70 -3
-61 -15 9 -11 9 -12 -5 -7 -9 3 -16 10 -16 14 0 12 -44 8 -52 -5 -5 -6 -8 -4
-8 5 0 13 -1 13 -10 0 -6 -9 -5 -17 3 -22 7 -4 -7 -6 -31 -3 -32 3 -41 1 -35
-8 5 -9 3 -9 -8 -1 -8 6 -30 10 -49 8 -19 -1 -38 3 -42 10 -6 8 -8 8 -8 0 0
-7 -15 -11 -36 -10 -20 1 -38 -2 -40 -5 -2 -4 -19 -3 -38 1 -19 4 -37 5 -40 3
-3 -3 -46 -6 -95 -6 -57 0 -88 -4 -84 -10 4 -6 1 -7 -8 -1 -8 4 -37 8 -66 9
-42 0 -49 -2 -40 -13 7 -9 13 -10 15 -4 2 6 10 8 18 5 27 -10 14 -21 -23 -19
-21 1 -52 -1 -69 -5 -17 -3 -39 -2 -48 3 -10 5 -16 5 -16 0 0 -15 -34 -9 -47
8 -9 12 -5 19 18 39 16 13 29 34 29 46 0 13 7 26 16 29 10 4 13 2 8 -7 -5 -8
-2 -7 9 2 12 10 14 17 7 26 -7 9 -5 16 7 26 9 8 14 9 10 3 -4 -7 0 -14 7 -17
11 -4 13 0 11 15 -3 11 -1 26 3 32 4 6 7 16 7 21 0 6 9 9 19 7 15 -3 18 1 13
17 -5 20 14 46 26 35 3 -3 11 -3 17 1 8 5 8 10 0 20 -12 14 3 31 19 21 5 -3
15 2 22 11 12 14 11 15 -11 8 -24 -7 -24 -7 -5 8 11 8 24 13 28 10 5 -3 3 5
-4 18 -11 21 -11 23 3 11 13 -10 17 -9 23 5 5 10 9 23 9 28 1 6 9 9 18 7 8 -1
18 4 22 13 3 8 0 15 -6 15 -7 0 -6 5 2 15 15 18 35 20 24 3 -4 -6 -3 -8 4 -4
6 3 11 14 11 24 3 61 4 62 25 44 11 -9 16 -12 13 -5 -11 18 11 66 27 60 17 -7
30 19 14 29 -7 4 -6 9 3 15 20 12 31 11 23 -3 -4 -7 -3 -8 5 -4 6 4 9 16 6 27
-4 11 -2 19 5 19 6 0 8 6 5 13 -4 6 0 4 8 -6 10 -12 17 -14 22 -8 3 6 2 11 -3
11 -6 0 -13 7 -16 16 -6 15 -4 15 11 3 9 -8 14 -9 10 -2 -4 6 -3 14 2 17 5 3
7 16 4 29 -4 18 -3 19 6 7 10 -13 12 -13 21 0 5 8 10 21 10 28 0 6 9 12 20 12
14 0 20 7 22 23 0 12 2 28 2 34 1 15 21 18 21 4 0 -5 3 -12 7 -16 3 -4 5 1 4
12 -2 10 -1 23 3 28 3 6 6 17 6 25 0 8 9 15 20 15 13 0 19 6 17 18 -2 9 3 17
11 17 16 0 35 38 31 63 -1 9 1 15 6 12 17 -10 38 6 33 26 -5 16 -1 20 13 17
11 -2 20 3 20 12 1 8 3 20 4 25 1 6 2 13 2 17 -1 3 5 12 13 18 11 9 15 9 15 1
0 -6 -5 -11 -11 -11 -5 0 -7 -4 -4 -10 7 -12 26 -14 24 -2 -4 21 2 42 10 37 5
-3 13 -1 16 5 4 6 1 9 -6 8 -6 -2 -13 2 -16 9 -3 8 4 10 20 7 20 -3 25 0 22
13 -4 26 15 48 27 31 7 -9 8 -6 5 10 -5 22 23 49 36 35 4 -3 5 4 2 15 -2 12 0
24 5 27 5 3 6 13 3 22 -4 11 -3 14 5 9 7 -4 20 -2 29 3 29 17 37 8 39 -42z
m1107 42 c-6 -6 -9 -17 -7 -24 3 -7 1 -15 -4 -19 -5 -3 -8 3 -7 12 1 20 13 42
23 42 3 0 1 -5 -5 -11z m-1199 -60 c-3 -5 -10 -7 -15 -3 -5 3 -7 10 -3 15 3 5
10 7 15 3 5 -3 7 -10 3 -15z m1196 -9 c-6 -11 -13 -20 -16 -20 -2 0 0 9 6 20
6 11 13 20 16 20 2 0 0 -9 -6 -20z m-6100 0 c0 -5 -2 -10 -4 -10 -3 0 -8 5
-11 10 -3 6 -1 10 4 10 6 0 11 -4 11 -10z m6104 -88 c3 -5 -1 -9 -9 -9 -8 0
-12 4 -9 9 3 4 7 8 9 8 2 0 6 -4 9 -8z m-6314 -342 c0 -5 -2 -10 -4 -10 -3 0
-8 5 -11 10 -3 6 -1 10 4 10 6 0 11 -4 11 -10z m2275 -59 c1 -32 -3 -48 -12
-48 -7 0 -13 4 -13 9 0 4 5 8 10 8 12 0 9 22 -5 32 -6 5 -5 8 4 8 11 0 11 3 1
15 -6 8 -9 19 -5 25 12 19 20 0 20 -49z m1 -79 c0 -10 -5 -19 -12 -19 -6 0 -9
9 -6 19 2 10 7 18 11 18 4 0 7 -8 7 -18z m4080 -49 c0 -24 -10 -30 -21 -13 -3
6 -1 10 6 10 8 0 9 4 0 13 -8 10 -7 14 2 14 7 0 13 -11 13 -24z m-4076 13 c0
-2 -7 -7 -16 -10 -8 -3 -12 -2 -9 4 6 10 25 14 25 6z m0 -26 c0 -5 -5 -10 -11
-10 -5 0 -7 5 -4 10 3 6 8 10 11 10 2 0 4 -4 4 -10z m2960 0 c0 -5 -2 -10 -4
-10 -3 0 -8 5 -11 10 -3 6 -1 10 4 10 6 0 11 -4 11 -10z m1114 -36 c3 -8 2
-12 -4 -9 -6 3 -10 10 -10 16 0 14 7 11 14 -7z m-4077 -21 c1 -24 0 -25 -6 -8
-7 17 -6 35 2 35 2 0 3 -12 4 -27z m4073 -8 c19 -22 8 -25 -12 -3 -10 10 -14
18 -9 18 5 0 14 -7 21 -15z m-8222 -100 c-3 -3 -9 2 -12 12 -6 14 -5 15 5 6 7
-7 10 -15 7 -18z m5113 -2 c13 -16 12 -17 -3 -4 -10 7 -18 15 -18 17 0 8 8 3
21 -13z m-5114 -45 c2 -12 1 -19 -3 -16 -3 3 -6 12 -8 20 -1 7 -5 20 -10 28
-7 12 -6 13 4 3 8 -7 15 -23 17 -35z m2783 -143 c7 -9 8 -15 2 -15 -5 0 -12 7
-16 15 -3 8 -4 15 -2 15 2 0 9 -7 16 -15z m321 -38 c-10 -9 -11 -8 -5 6 3 10
9 15 12 12 3 -3 0 -11 -7 -18z m13 -85 c3 -5 -1 -9 -9 -9 -8 0 -12 4 -9 9 3 4
7 8 9 8 2 0 6 -4 9 -8z m-399 -32 c3 -6 -1 -7 -9 -4 -18 7 -21 14 -7 14 6 0
13 -4 16 -10z m389 -6 c3 -8 2 -12 -4 -9 -6 3 -10 10 -10 16 0 14 7 11 14 -7z
m-1994 -8 c0 -2 -7 -7 -16 -10 -8 -3 -12 -2 -9 4 6 10 25 14 25 6z m3 -30 c4
-10 1 -13 -8 -9 -8 3 -12 9 -9 14 7 12 11 11 17 -5z m4948 -39 c-13 -13 -26
-3 -16 12 3 6 11 8 17 5 6 -4 6 -10 -1 -17z m823 -13 c3 -8 2 -12 -4 -9 -6 3
-10 10 -10 16 0 14 7 11 14 -7z m1386 -15 c0 -14 -17 -10 -23 5 -4 10 -1 13 9
9 7 -3 14 -9 14 -14z m-1984 -28 c1 -6 0 -7 -3 -1 -2 5 -9 8 -13 5 -5 -3 -11
-1 -14 4 -4 5 2 8 11 7 9 -2 18 -8 19 -15z m-2100 -56 c-1 -30 -5 -56 -11 -59
-6 -2 -10 22 -10 59 0 41 3 61 11 58 6 -2 10 -28 10 -58z m1828 49 c3 -8 2
-12 -4 -9 -6 3 -10 10 -10 16 0 14 7 11 14 -7z m-2908 -3 c-4 -5 -1 -12 4 -14
6 -3 5 -4 -2 -3 -15 3 -23 26 -8 26 6 0 9 -4 6 -9z m5147 -26 c-3 -9 -8 -14
-10 -11 -3 3 -2 9 2 15 9 16 15 13 8 -4z m-5139 -14 c3 -5 0 -11 -7 -14 -8 -3
-14 1 -14 9 0 16 13 19 21 5z m-529 -10 c3 -5 2 -12 -3 -15 -5 -3 -9 1 -9 9 0
17 3 19 12 6z m531 -30 c0 -11 -5 -17 -13 -14 -10 4 -11 9 -2 19 15 18 15 18
15 -5z m-1 -63 c-3 -11 0 -30 6 -40 9 -16 8 -19 -2 -13 -9 6 -11 2 -7 -13 4
-14 2 -22 -7 -22 -13 0 -15 24 -2 36 9 10 9 26 0 21 -5 -3 -8 12 -8 33 -1 30
2 36 11 29 7 -6 11 -20 9 -31z m1075 22 c0 -5 -5 -10 -11 -10 -5 0 -7 5 -4 10
3 6 8 10 11 10 2 0 4 -4 4 -10z m-1645 -10 c-3 -5 -12 -10 -18 -10 -7 0 -6 4
3 10 19 12 23 12 15 0z m1640 -20 c3 -6 -1 -7 -9 -4 -18 7 -21 14 -7 14 6 0
13 -4 16 -10z m-12 -35 c-3 -9 -8 -14 -10 -11 -3 3 -2 9 2 15 9 16 15 13 8 -4z
m17 -31 c0 -8 -19 -13 -24 -6 -3 5 1 9 9 9 8 0 15 -2 15 -3z m-4115 -67 c1
-15 -2 -27 -7 -27 -5 0 -6 -6 -1 -12 4 -7 8 -19 10 -27 1 -10 -1 -11 -10 -2
-13 13 -18 61 -5 61 10 0 6 23 -7 33 -6 5 -4 7 5 5 8 -3 15 -16 15 -31z m8222
-263 c-3 -3 -12 -4 -19 -1 -8 3 -5 6 6 6 11 1 17 -2 13 -5z m7 -32 c3 -5 -1
-9 -9 -9 -8 0 -12 4 -9 9 3 4 7 8 9 8 2 0 6 -4 9 -8z m-8187 -234 c-3 -8 -6
-5 -6 6 -1 11 2 17 5 13 3 -3 4 -12 1 -19z m6933 -8 c0 -5 -2 -10 -4 -10 -3 0
-8 5 -11 10 -3 6 -1 10 4 10 6 0 11 -4 11 -10z m-6937 -23 c3 -8 0 -14 -7 -14
-7 0 -13 6 -13 14 0 7 4 13 8 13 4 0 9 -6 12 -13z m1988 -14 c13 -16 12 -17
-3 -4 -10 7 -18 15 -18 17 0 8 8 3 21 -13z m4484 7 c3 -6 -1 -7 -9 -4 -18 7
-21 14 -7 14 6 0 13 -4 16 -10z m70 1 c3 -5 2 -12 -3 -15 -5 -3 -9 1 -9 9 0
17 3 19 12 6z m-561 -43 c-3 -4 -9 -8 -15 -8 -5 0 -9 4 -9 8 0 5 7 9 15 9 8 0
12 -4 9 -9z m46 6 c0 -2 -9 -8 -20 -14 -15 -8 -18 -8 -14 3 4 11 34 21 34 11z
m-89 -27 c-10 -9 -11 -8 -5 6 3 10 9 15 12 12 3 -3 0 -11 -7 -18z m-436 -17
c-3 -5 -12 -10 -18 -10 -7 0 -6 4 3 10 19 12 23 12 15 0z m29 1 c3 -5 -1 -11
-9 -14 -9 -4 -12 -1 -8 9 6 16 10 17 17 5z m2691 -60 c3 -5 2 -12 -3 -15 -5
-3 -9 1 -9 9 0 17 3 19 12 6z m-3025 -55 c0 -2 -7 -7 -16 -10 -8 -3 -12 -2 -9
4 6 10 25 14 25 6z m-2165 -142 c9 -15 12 -23 6 -20 -11 7 -35 46 -28 46 3 0
12 -12 22 -26z m5 -44 c0 -5 -2 -10 -4 -10 -3 0 -8 5 -11 10 -3 6 -1 10 4 10
6 0 11 -4 11 -10z m-9 -43 c-10 -9 -11 -8 -5 6 3 10 9 15 12 12 3 -3 0 -11 -7
-18z m-1351 -141 c0 -2 -7 -6 -15 -10 -8 -3 -15 -1 -15 4 0 6 7 10 15 10 8 0
15 -2 15 -4z m1395 -346 c3 -5 1 -10 -4 -10 -6 0 -11 5 -11 10 0 6 2 10 4 10
3 0 8 -4 11 -10z m1695 -34 c0 -2 -8 -10 -17 -17 -16 -13 -17 -12 -4 4 13 16
21 21 21 13z m-3370 -428 c0 -4 -4 -8 -9 -8 -6 0 -12 4 -15 8 -3 5 1 9 9 9 8
0 15 -4 15 -9z m1760 -93 c7 -9 8 -15 2 -15 -5 0 -12 7 -16 15 -3 8 -4 15 -2
15 2 0 9 -7 16 -15z m4532 -263 c-7 -2 -9 -9 -5 -15 3 -7 2 -8 -2 -4 -16 14
-14 36 3 29 10 -4 12 -7 4 -10z m-6754 -87 c-3 -3 -9 2 -12 12 -6 14 -5 15 5
6 7 -7 10 -15 7 -18z m3170 -80 c-3 -3 -9 2 -12 12 -6 14 -5 15 5 6 7 -7 10
-15 7 -18z m-78 -35 c0 -5 -5 -10 -11 -10 -5 0 -7 5 -4 10 3 6 8 10 11 10 2 0
4 -4 4 -10z"/>
<path d="M7459 5473 c-1 -5 -1 -12 0 -17 1 -5 -5 -6 -12 -3 -11 4 -13 0 -9
-15 5 -19 5 -20 16 -2 11 21 17 44 10 44 -2 0 -5 -3 -5 -7z"/>
<path d="M7436 5398 c3 -4 11 -5 19 -1 21 7 19 12 -4 10 -11 0 -18 -5 -15 -9z"/>
<path d="M7487 4613 c-7 -13 -1 -72 8 -80 4 -5 5 -2 1 5 -4 6 -3 12 3 12 10 0
9 19 -2 38 -5 6 -5 17 -2 22 3 6 4 10 1 10 -3 0 -7 -3 -9 -7z"/>
<path d="M7483 4514 c4 -4 1 -14 -6 -23 -11 -14 -10 -15 8 -1 11 8 21 15 23
16 2 1 -5 5 -15 8 -9 4 -14 4 -10 0z"/>
<path d="M7490 4474 c-11 -12 -10 -18 3 -30 9 -8 12 -9 7 -2 -12 15 -13 31 -2
24 5 -3 9 1 9 9 0 19 -2 19 -17 -1z"/>
<path d="M7487 4419 c7 -7 15 -10 18 -7 3 3 -2 9 -12 12 -14 6 -15 5 -6 -5z"/>
<path d="M7483 4383 c0 -9 4 -10 14 -2 7 6 13 12 13 14 0 1 -6 2 -13 2 -8 0
-14 -6 -14 -14z"/>
<path d="M6606 4378 c3 -5 10 -6 15 -3 13 9 11 12 -6 12 -8 0 -12 -4 -9 -9z"/>
<path d="M7491 4356 c-9 -10 -9 -16 -1 -21 6 -4 14 -4 17 -1 4 3 1 6 -7 6 -10
0 -10 3 0 15 7 8 10 15 7 15 -2 0 -10 -6 -16 -14z"/>
<path d="M7490 4293 c5 -2 8 -9 4 -14 -3 -5 0 -9 6 -9 15 0 7 23 -8 26 -7 1
-8 0 -2 -3z"/>
<path d="M7485 4243 c4 -15 2 -23 -6 -23 -7 0 -10 -3 -6 -6 3 -3 12 -2 20 3
14 7 14 10 0 28 -15 20 -15 20 -8 -2z"/>
<path d="M7120 4185 c-7 -9 -8 -15 -2 -15 5 0 12 7 16 15 3 8 4 15 2 15 -2 0
-9 -7 -16 -15z"/>
<path d="M7170 4184 c0 -15 33 -11 38 4 2 6 -6 10 -17 9 -12 -1 -21 -7 -21
-13z"/>
<path d="M7005 4180 c-3 -6 1 -7 9 -4 18 7 21 14 7 14 -6 0 -13 -4 -16 -10z"/>
<path d="M7070 4180 c0 -5 5 -10 11 -10 5 0 7 5 4 10 -3 6 -8 10 -11 10 -2 0
-4 -4 -4 -10z"/>
<path d="M6566 4142 c-3 -5 1 -9 9 -9 8 0 12 4 9 9 -3 4 -7 8 -9 8 -2 0 -6 -4
-9 -8z"/>
<path d="M3847 7459 c7 -7 15 -10 18 -7 3 3 -2 9 -12 12 -14 6 -15 5 -6 -5z"/>
<path d="M4256 7425 c4 -8 10 -12 15 -9 11 6 2 24 -11 24 -5 0 -7 -7 -4 -15z"/>
<path d="M8043 7427 c0 -8 6 -14 14 -14 9 0 10 4 2 14 -6 7 -12 13 -14 13 -1
0 -2 -6 -2 -13z"/>
<path d="M8100 7420 c-9 -6 -10 -10 -3 -10 6 0 15 5 18 10 8 12 4 12 -15 0z"/>
<path d="M3606 7311 c-4 -5 -2 -12 3 -15 5 -4 12 -2 15 3 4 5 2 12 -3 15 -5 4
-12 2 -15 -3z"/>
<path d="M3560 7269 c0 -5 5 -7 10 -4 6 3 10 8 10 11 0 2 -4 4 -10 4 -5 0 -10
-5 -10 -11z"/>
<path d="M6651 6953 c-7 -8 -11 -16 -8 -19 2 -2 10 2 17 11 17 20 9 27 -9 8z"/>
<path d="M4533 6915 c0 -7 6 -11 14 -8 7 3 13 6 13 8 0 2 -6 5 -13 8 -8 3 -14
-1 -14 -8z"/>
<path d="M8536 6898 c3 -5 10 -6 15 -3 13 9 11 12 -6 12 -8 0 -12 -4 -9 -9z"/>
<path d="M3163 6785 c0 -8 4 -12 9 -9 4 3 8 9 8 15 0 5 -4 9 -8 9 -5 0 -9 -7
-9 -15z"/>
<path d="M6567 6789 c7 -7 15 -10 18 -7 3 3 -2 9 -12 12 -14 6 -15 5 -6 -5z"/>
<path d="M8535 6731 c-3 -5 -2 -12 3 -15 5 -3 9 1 9 9 0 17 -3 19 -12 6z"/>
<path d="M8545 6669 c-4 -6 -5 -12 -2 -15 2 -3 7 2 10 11 7 17 1 20 -8 4z"/>
<path d="M8539 6623 c-13 -16 -12 -17 4 -4 9 7 17 15 17 17 0 8 -8 3 -21 -13z"/>
<path d="M8541 6597 c-8 -10 -7 -14 2 -14 8 0 14 6 14 14 0 7 -1 13 -2 13 -2
0 -8 -6 -14 -13z"/>
<path d="M91 6257 c-8 -10 -7 -14 2 -14 8 0 14 6 14 14 0 7 -1 13 -2 13 -2 0
-8 -6 -14 -13z"/>
<path d="M1294 6246 c1 -6 4 -15 7 -21 4 -5 5 -18 4 -27 -2 -10 0 -18 4 -18 5
0 8 17 7 38 0 22 -6 39 -12 39 -7 0 -11 -5 -10 -11z"/>
<path d="M1330 5970 c0 -17 17 -47 23 -40 2 3 -2 16 -10 30 -7 14 -13 18 -13
10z"/>
<path d="M6200 5956 c0 -2 8 -10 18 -17 15 -13 16 -12 3 4 -13 16 -21 21 -21
13z"/>
<path d="M2603 5752 c1 -14 5 -18 11 -12 7 7 6 14 -1 21 -9 9 -12 7 -10 -9z"/>
<path d="M6095 5740 c-3 -5 -1 -10 4 -10 6 0 11 5 11 10 0 6 -2 10 -4 10 -3 0
-8 -4 -11 -10z"/>
<path d="M8577 5646 c-4 -10 -3 -15 3 -11 6 3 10 1 10 -6 0 -7 3 -10 6 -6 3 3
2 13 -4 22 -8 16 -9 16 -15 1z"/>
<path d="M1374 5581 c0 -23 4 -27 13 -19 11 8 11 14 1 27 -7 9 -13 17 -14 19
-1 2 -1 -10 0 -27z"/>
<path d="M8574 5580 c0 -35 -1 -35 17 -13 12 14 12 15 0 9 -10 -7 -12 -3 -6
13 3 11 2 21 -3 21 -4 0 -8 -13 -8 -30z"/>
<path d="M2521 5586 c-8 -10 -9 -16 -1 -21 5 -3 10 -5 11 -3 4 18 7 38 4 38
-1 0 -8 -6 -14 -14z"/>
<path d="M205 5560 c3 -5 8 -10 11 -10 2 0 4 5 4 10 0 6 -5 10 -11 10 -5 0 -7
-4 -4 -10z"/>
<path d="M4549 5545 c-1 -3 -3 -9 -4 -15 -1 -5 -3 -11 -5 -12 -8 -11 -5 -35 4
-35 7 0 12 15 12 34 0 29 -4 43 -7 28z"/>
<path d="M4543 5463 c4 -6 1 -14 -5 -16 -10 -4 -9 -6 1 -6 10 -1 11 -4 2 -15
-9 -10 -8 -15 2 -19 15 -5 17 47 3 60 -5 4 -6 3 -3 -4z"/>
<path d="M4524 5368 c-4 -7 -3 -8 4 -4 12 7 15 -3 13 -41 -1 -11 1 -23 6 -26
4 -3 8 12 8 34 0 38 -18 59 -31 37z"/>
<path d="M247 5329 c4 -13 8 -18 11 -10 2 7 -1 18 -6 23 -8 8 -9 4 -5 -13z"/>
<path d="M1433 5265 c0 -8 4 -12 9 -9 5 3 6 10 3 15 -9 13 -12 11 -12 -6z"/>
<path d="M4537 5249 c7 -7 15 -10 18 -7 3 3 -2 9 -12 12 -14 6 -15 5 -6 -5z"/>
<path d="M4533 5216 c0 -8 6 -12 14 -9 7 3 10 9 7 14 -8 14 -21 11 -21 -5z"/>
<path d="M8610 4961 c0 -6 4 -13 10 -16 6 -3 7 1 4 9 -7 18 -14 21 -14 7z"/>
<path d="M8610 4926 c0 -2 7 -7 16 -10 8 -3 12 -2 9 4 -6 10 -25 14 -25 6z"/>
<path d="M8610 4906 c0 -2 8 -10 18 -17 15 -13 16 -12 3 4 -13 16 -21 21 -21
13z"/>
<path d="M5596 4862 c-3 -4 4 -9 15 -9 23 -2 25 3 4 10 -8 4 -16 3 -19 -1z"/>
<path d="M8617 4857 c-3 -8 1 -14 8 -14 7 0 11 6 8 14 -3 7 -6 13 -8 13 -2 0
-5 -6 -8 -13z"/>
<path d="M1460 4840 c-9 -6 -10 -10 -3 -10 6 0 15 5 18 10 8 12 4 12 -15 0z"/>
<path d="M1462 4804 c-7 -8 -8 -14 -3 -14 10 0 25 19 20 25 -2 1 -10 -3 -17
-11z"/>
<path d="M1457 4763 c3 -7 8 -13 12 -13 4 0 8 6 8 13 0 8 -6 14 -13 14 -7 0
-10 -6 -7 -14z"/>
<path d="M5370 4430 c0 -5 5 -10 11 -10 5 0 7 5 4 10 -3 6 -8 10 -11 10 -2 0
-4 -4 -4 -10z"/>
<path d="M1495 4399 c-4 -6 -5 -12 -2 -15 2 -3 7 2 10 11 7 17 1 20 -8 4z"/>
<path d="M3141 4346 c-9 -10 -8 -15 2 -19 8 -3 13 3 14 14 2 23 -1 24 -16 5z"/>
<path d="M4575 4201 c-3 -5 -2 -12 3 -15 5 -3 9 1 9 9 0 17 -3 19 -12 6z"/>
<path d="M5200 4196 c0 -2 8 -10 18 -17 15 -13 16 -12 3 4 -13 16 -21 21 -21
13z"/>
<path d="M400 4186 c0 -2 7 -7 16 -10 8 -3 12 -2 9 4 -6 10 -25 14 -25 6z"/>
<path d="M400 4166 c0 -2 8 -10 18 -17 15 -13 16 -12 3 4 -13 16 -21 21 -21
13z"/>
<path d="M3030 4089 c0 -5 5 -7 10 -4 6 3 10 8 10 11 0 2 -4 4 -10 4 -5 0 -10
-5 -10 -11z"/>
<path d="M2900 3900 c0 -5 5 -10 11 -10 5 0 7 5 4 10 -3 6 -8 10 -11 10 -2 0
-4 -4 -4 -10z"/>
<path d="M1536 3882 c-3 -5 1 -9 9 -9 8 0 12 4 9 9 -3 4 -7 8 -9 8 -2 0 -6 -4
-9 -8z"/>
<path d="M3485 3860 c3 -5 11 -10 16 -10 6 0 7 5 4 10 -3 6 -11 10 -16 10 -6
0 -7 -4 -4 -10z"/>
<path d="M4810 3860 c0 -5 5 -10 11 -10 5 0 7 5 4 10 -3 6 -8 10 -11 10 -2 0
-4 -4 -4 -10z"/>
<path d="M3488 3763 c6 -2 9 -10 6 -15 -4 -7 -2 -8 5 -4 13 9 5 26 -12 25 -9
0 -8 -2 1 -6z"/>
<path d="M8695 3721 c-6 -11 13 -26 22 -17 4 3 1 6 -6 6 -7 0 -9 5 -6 10 3 6
4 10 1 10 -3 0 -7 -4 -11 -9z"/>
<path d="M3486 3702 c-3 -5 1 -9 9 -9 8 0 12 4 9 9 -3 4 -7 8 -9 8 -2 0 -6 -4
-9 -8z"/>
<path d="M3496 3656 c6 -15 4 -17 -6 -11 -9 6 -11 4 -5 -4 5 -9 10 -10 18 -2
8 8 7 14 -2 24 -10 10 -11 8 -5 -7z"/>
<path d="M2577 3369 c7 -7 15 -10 18 -7 3 3 -2 9 -12 12 -14 6 -15 5 -6 -5z"/>
<path d="M7493 3297 c-13 -5 -23 -14 -23 -20 0 -6 5 -5 13 1 7 6 25 9 40 8 31
-4 34 0 10 12 -11 6 -27 6 -40 -1z"/>
<path d="M8736 3287 c3 -10 9 -15 12 -12 3 3 0 11 -7 18 -10 9 -11 8 -5 -6z"/>
<path d="M6580 3221 c0 -6 4 -13 10 -16 6 -3 7 1 4 9 -7 18 -14 21 -14 7z"/>
<path d="M495 3200 c-3 -5 -1 -10 4 -10 6 0 11 5 11 10 0 6 -2 10 -4 10 -3 0
-8 -4 -11 -10z"/>
<path d="M6077 3177 c-3 -8 1 -14 8 -14 7 0 11 6 8 14 -3 7 -6 13 -8 13 -2 0
-5 -6 -8 -13z"/>
<path d="M490 3173 c5 -2 8 -9 4 -14 -3 -5 0 -9 6 -9 15 0 7 23 -8 26 -7 1 -8
0 -2 -3z"/>
<path d="M495 3089 c-4 -6 -5 -12 -2 -15 2 -3 7 2 10 11 7 17 1 20 -8 4z"/>
<path d="M7609 3083 c-13 -16 -12 -17 4 -4 16 13 21 21 13 21 -2 0 -10 -8 -17
-17z"/>
<path d="M3529 2779 c-6 -31 -4 -46 7 -42 12 5 13 27 1 39 -4 4 -7 5 -8 3z"/>
<path d="M523 2678 c0 -18 2 -27 5 -20 2 6 7 10 11 8 4 -3 7 5 6 16 -3 35 -22
31 -22 -4z"/>
<path d="M533 2605 c0 -8 4 -15 9 -15 4 0 8 4 8 9 0 6 -4 12 -8 15 -5 3 -9 -1
-9 -9z"/>
<path d="M2136 2608 c3 -5 10 -6 15 -3 13 9 11 12 -6 12 -8 0 -12 -4 -9 -9z"/>
<path d="M1942 2211 c-11 -7 -11 -9 2 -14 10 -4 16 -1 16 8 0 17 -1 17 -18 6z"/>
<path d="M574 2199 c-3 -6 -1 -16 4 -21 8 -8 11 -5 9 11 -1 24 -3 25 -13 10z"/>
<path d="M8940 2185 c0 -5 5 -17 10 -25 5 -8 10 -10 10 -5 0 6 -5 17 -10 25
-5 8 -10 11 -10 5z"/>
<path d="M8864 1859 c-3 -6 -1 -16 4 -21 8 -8 11 -5 9 11 -1 24 -3 25 -13 10z"/>
<path d="M1910 1850 c-9 -6 -10 -10 -3 -10 6 0 15 5 18 10 8 12 4 12 -15 0z"/>
<path d="M613 1735 c0 -8 4 -12 9 -9 5 3 6 10 3 15 -9 13 -12 11 -12 -6z"/>
<path d="M3646 1742 c-3 -5 1 -9 9 -9 8 0 12 4 9 9 -3 4 -7 8 -9 8 -2 0 -6 -4
-9 -8z"/>
<path d="M7965 1740 c-3 -5 1 -10 10 -10 9 0 13 5 10 10 -3 6 -8 10 -10 10 -2
0 -7 -4 -10 -10z"/>
<path d="M3655 1710 c-3 -5 -1 -10 4 -10 6 0 11 5 11 10 0 6 -2 10 -4 10 -3 0
-8 -4 -11 -10z"/>
<path d="M3645 1680 c-3 -5 -1 -10 4 -10 6 0 11 5 11 10 0 6 -2 10 -4 10 -3 0
-8 -4 -11 -10z"/>
<path d="M8050 1620 c-9 -6 -10 -10 -3 -10 6 0 15 5 18 10 8 12 4 12 -15 0z"/>
<path d="M8450 1546 c0 -2 8 -10 18 -17 15 -13 16 -12 3 4 -13 16 -21 21 -21
13z"/>
<path d="M1330 1420 c0 -5 5 -10 11 -10 5 0 7 5 4 10 -3 6 -8 10 -11 10 -2 0
-4 -4 -4 -10z"/>
<path d="M1055 1400 c3 -5 8 -10 11 -10 2 0 4 5 4 10 0 6 -5 10 -11 10 -5 0
-7 -4 -4 -10z"/>
</g>
</svg>
